<?xml version="1.0" encoding="UTF-8"?><svg id="Calque_1" xmlns="http://www.w3.org/2000/svg" viewBox="0 0 432 318.3"><path d="m287.29,202.46c11.98,4.96,25.11,7.7,38.89,7.7,56.2,0,101.76-45.56,101.76-101.77S382.38,6.64,326.18,6.64s-101.77,45.56-101.77,101.76c0,29.63,12.67,56.3,32.88,74.9l.05.05h0c2.2-10.98,4.36-21.26,6.49-30.88-2.41-.77-18.01-6.63-17.86-31.09,0,0,.09-1.42.68-1.52,0,0,.03,0,.07,0,.14,0,.45.04.76.39,0,0,6.1,5.16,18.79,9.56.84.3,1.72.59,2.63.87,15.26-61.91,30.67-91.21,57.23-100.46,6.11-2.13,11.8-3.06,17.01-3.18,22.56-.49,36.07,14.47,36.07,14.47,1.32,1.26,1.08,1.63,1,1.71-.01.01-.02.01-.02.01-1.05.76-4.04-.5-4.04-.5-1.54-.83-3.06-1.57-4.55-2.23-5.97-2.62-11.51-3.88-16.67-3.94-34.82-.48-51.9,52.71-60.17,98.98,14.01,1.09,31.26.23,51.9-4.48,2.45-.56,4.93-1.16,7.47-1.83,0,0,.64-.13,1.3-.23.61-.09,1.24-.16,1.35-.07.23.2.54.58-.31,1.51-.61.68-10.61,13.2-33.05,21.46-8.78,3.24-19.46,5.81-32.23,6.77-3.25,24.96-3.95,43.77-3.95,43.77h0s.05.02.05.02Z" style="fill:#ae137d;"/><g><path d="m28.22,241.17s-1.24-21.93,4.55-28.34c5.96-6.6,17.49-4.22,17.58-4.19.1.04,3.89,1.35,6.68,5.18,2.33,3.19,9.04,7.24,14.33,3.72,0,0,3.25-1.72,3.25-6.91s-7.35-6.99-10.46-7.38c0,0-18.91-2.38-30.39,1.23-11.48,3.61-18.86,9.36-18.86,36.68H4.93v9.23h9.98v64.42h13.31v-64.42h23.89s8.07-.55,8.07,7.83v56.58h13.17v-74.84s-4.2,1.19-14.98,1.19h-30.15Z" style="fill:#ae137d;"/><polygon points="97.62 241.17 113.87 294.71 130.12 241.17 142.71 241.17 119.17 314.82 108.49 314.82 85.03 241.17 97.62 241.17" style="fill:#ae137d;"/><path d="m200.05,279.71v-4.53c0-10.47-2.46-19.01-7.3-25.36-4.94-6.48-11.2-9.76-18.6-9.76-8.26,0-15.07,3.53-20.26,10.48-5.09,6.82-7.67,16.05-7.67,27.42s2.88,21,8.55,27.89c5.75,6.99,13.42,10.53,22.82,10.53,0,0,11.34.27,20.17-4.74l-2.02-10.78c-9.63,4.17-18.03,3.92-18.03,3.92-5.41,0-9.87-2.38-13.63-7.27-3.46-4.5-5.37-10.27-5.66-17.17l-.02-.63h41.65Zm-41-11.01l.09-.68c.56-4.66,2.14-8.52,4.67-11.46,2.86-3.34,6.37-4.96,10.7-4.96,3.26,0,6.16,1.69,8.89,5.15,2.41,3.06,3.78,6.87,4.09,11.3l.04.65h-28.47Z" style="fill:#ae137d;"/><path d="m210.32,311.89l2.27-11.64,1.54.83c4.87,2.68,10.17,4.03,15.74,4.03,4.76,0,8.65-1.03,11.59-3.05,2.84-1.95,4.23-4.47,4.23-7.69,0-2.18-.68-4.05-2.1-5.77-.97-1.19-3.59-3.11-10.55-5.59-4.78-1.69-8.28-2.96-10.39-3.75-2.36-.88-4.56-2.21-6.57-3.91-2.04-1.74-3.61-3.84-4.67-6.25-1.05-2.38-1.58-5.09-1.58-8.04,0-6.44,2.47-11.61,7.35-15.39,4.8-3.72,11.21-5.61,19.06-5.61,5.02,0,10.65,1,16.74,2.97l1.07.35h0s0,.03,0,.03l-2.6,11.26h0s0,.02,0,.02h-.03s-1.38-.53-1.38-.53c-4.92-1.86-9.6-2.82-13.92-2.82-4.65,0-8.34.89-10.99,2.65-2.53,1.69-3.77,3.88-3.77,6.67,0,1.76.55,3.24,1.69,4.53,1.15,1.33,3.64,2.62,7.37,3.85,0,0,4.34,1.45,4.34,1.45l4.67,1.52c4.12,1.34,7.21,2.91,9.83,4.8,2.68,1.94,4.73,4.32,6.07,7.07,1.34,2.75,2.01,5.95,2.01,9.53,0,7.04-2.6,12.71-7.74,16.84-5.07,4.06-11.59,6.12-19.37,6.12,0,0-11.4.47-19.9-4.5Z" style="fill:#ae137d;"/></g></svg>