<?xml version="1.0" encoding="UTF-8" standalone="no"?>
<svg
   xmlns:dc="http://purl.org/dc/elements/1.1/"
   xmlns:cc="http://creativecommons.org/ns#"
   xmlns:rdf="http://www.w3.org/1999/02/22-rdf-syntax-ns#"
   xmlns:svg="http://www.w3.org/2000/svg"
   xmlns="http://www.w3.org/2000/svg"
   xmlns:sodipodi="http://sodipodi.sourceforge.net/DTD/sodipodi-0.dtd"
   xmlns:inkscape="http://www.inkscape.org/namespaces/inkscape"
   width="188.31689"
   height="62.9907"
   viewBox="0 0 49.82551 16.66629"
   version="1.1"
   id="svg246997"
   inkscape:version="1.0.1 (c497b03c, 2020-09-10)"
   sodipodi:docname="JLG.svg">
  <defs
     id="defs246991">
    <clipPath
       id="clip3-2">
      <path
         d="m 541,57 h 6 v 6.3125 h -6 z m 0,0"
         id="path247192" />
    </clipPath>
    <clipPath
       id="clip4-9">
      <path
         d="m 547,57 h 6 v 6.3125 h -6 z m 0,0"
         id="path247195" />
    </clipPath>
    <clipPath
       id="clip5-4">
      <path
         d="m 552,57 h 5 v 6.3125 h -5 z m 0,0"
         id="path247198" />
    </clipPath>
    <clipPath
       id="clip6-8">
      <path
         d="m 556,55 h 6 v 8.3125 h -6 z m 0,0"
         id="path247201" />
    </clipPath>
    <clipPath
       id="clip7-1">
      <path
         d="m 562,55 h 2 v 8.3125 h -2 z m 0,0"
         id="path247204" />
    </clipPath>
    <clipPath
       id="clip8-0">
      <path
         d="m 568,55 h 6 v 8.3125 h -6 z m 0,0"
         id="path247207" />
    </clipPath>
    <clipPath
       id="clip9-0">
      <path
         d="m 564,57 h 5 v 6.3125 h -5 z m 0,0"
         id="path247210" />
    </clipPath>
    <clipPath
       id="clip10-0">
      <path
         d="M 517.76562,57 H 523 v 6.3125 h -5.23438 z m 0,0"
         id="path247213" />
    </clipPath>
    <clipPath
       id="clip11-6">
      <path
         d="m 523,57 h 6 v 6.3125 h -6 z m 0,0"
         id="path247216" />
    </clipPath>
    <clipPath
       id="clip12-67">
      <path
         d="m 533,57 h 6 v 6.3125 h -6 z m 0,0"
         id="path247219" />
    </clipPath>
    <clipPath
       id="clip13-6">
      <path
         d="m 528,57 h 6 v 6.3125 h -6 z m 0,0"
         id="path247222" />
    </clipPath>
    <clipPath
       id="clip15-9">
      <path
         d="m 531,21.292969 h 10 V 31 h -10 z m 0,0"
         id="path247228" />
    </clipPath>
    <clipPath
       id="clip1-5">
      <path
         d="M 375.69531,49.3125 H 403 V 95 h -27.30469 z m 0,0"
         id="path248293" />
    </clipPath>
    <clipPath
       id="clip2-27">
      <path
         d="m 391,62 h 27 v 46.48828 h -27 z m 0,0"
         id="path248296" />
    </clipPath>
  </defs>
  <sodipodi:namedview
     id="base"
     pagecolor="#00ffff"
     bordercolor="#666666"
     borderopacity="1.0"
     inkscape:pageopacity="0"
     inkscape:pageshadow="2"
     inkscape:zoom="1.5158082"
     inkscape:cx="22.470317"
     inkscape:cy="76.885114"
     inkscape:document-units="px"
     inkscape:current-layer="layer1"
     inkscape:document-rotation="0"
     showgrid="false"
     units="px"
     lock-margins="true"
     fit-margin-top="0.5"
     fit-margin-left="0.5"
     fit-margin-right="0.5"
     fit-margin-bottom="0.5"
     inkscape:window-width="1440"
     inkscape:window-height="874"
     inkscape:window-x="0"
     inkscape:window-y="26"
     inkscape:window-maximized="0" />
  <metadata
     id="metadata246994">
    <rdf:RDF>
      <cc:Work
         rdf:about="">
        <dc:format>image/svg+xml</dc:format>
        <dc:type
           rdf:resource="http://purl.org/dc/dcmitype/StillImage" />
        <dc:title></dc:title>
      </cc:Work>
    </rdf:RDF>
  </metadata>
  <g
     inkscape:label="Layer 1"
     inkscape:groupmode="layer"
     id="layer1"
     transform="translate(7.9783313,-130.0269)">
    <g
       id="g533206"
       transform="matrix(1.535319,0,0,1.535319,-1048.5323,-598.58777)">
      <path
         style="fill:#f35c17;fill-opacity:1;fill-rule:nonzero;stroke:none;stroke-width:0.352778"
         d="m 690.41212,474.65546 h -4.6371 l -2.95451,6.94118 h -3.41615 l -1.57372,3.74137 h 6.75238 c 0.54157,0 1.49104,-0.51538 1.7887,-1.16582 l 4.0404,-9.51673"
         id="path297663" />
      <path
         style="fill:#f35c17;fill-opacity:1;fill-rule:nonzero;stroke:none;stroke-width:0.352778"
         d="m 702.35007,478.61318 c 0.10748,-0.24391 0.1695,-0.46026 0.48094,-0.46026 h 5.80291 l 1.47726,-3.49746 h -8.58104 c -0.81443,0 -2.38677,0.73174 -3.0372,2.16903 l -2.05328,4.77215 -3.54155,0.001 2.96415,-6.94256 h -4.63572 l -4.58335,10.68256 h 8.6775 l 0.82821,-1.93752 c 0.15709,1.12034 1.01423,1.93752 2.39778,1.93752 h 7.02248 l 2.72577,-6.4258 h -5.19934 l -0.88195,2.08773 h 1.16031 l -0.21773,0.59669 h -1.72255 c -0.31143,0 -0.23013,-0.25769 -0.17501,-0.40652 l 1.09141,-2.57693"
         id="path297665" />
      <path
         style="fill:#f35c17;fill-opacity:1;fill-rule:nonzero;stroke:none;stroke-width:0.352778"
         d="m 707.58248,484.50016 c 0.0827,0 0.12402,-0.0276 0.12402,-0.10335 0,-0.04 -0.0193,-0.1006 -0.11162,-0.1006 h -0.19981 v 0.20395 z m -0.34175,-0.33486 h 0.38447 c 0.20257,0 0.23978,0.14883 0.23978,0.21497 0,0.0841 -0.0427,0.1571 -0.11713,0.18191 0.062,0.0275 0.0965,0.051 0.0965,0.19292 0,0.11162 0,0.13918 0.0331,0.15159 v 0.0207 h -0.17501 c -0.011,-0.0358 -0.0179,-0.0758 -0.0179,-0.15434 0,-0.10335 -0.005,-0.14469 -0.12402,-0.14469 h -0.16537 v 0.29903 h -0.15434 v -0.76205"
         id="path297667" />
      <path
         style="fill:#f35c17;fill-opacity:1;fill-rule:nonzero;stroke:none;stroke-width:0.352778"
         d="m 706.88244,484.54839 c 0,-0.17225 0.0675,-0.3321 0.18879,-0.45475 0.12127,-0.11989 0.28112,-0.18603 0.45199,-0.18603 0.17088,0 0.33211,0.0661 0.45338,0.18603 0.12126,0.12265 0.18741,0.2825 0.18741,0.45475 0,0.35278 -0.28663,0.64079 -0.64079,0.64079 -0.17087,0 -0.33072,-0.0675 -0.45199,-0.18741 -0.12127,-0.12127 -0.18879,-0.2825 -0.18879,-0.45338 m 0.64078,0.78135 c 0.20947,0 0.40515,-0.0813 0.5526,-0.22875 0.14883,-0.14745 0.23013,-0.34451 0.23013,-0.5526 0,-0.20946 -0.0813,-0.40514 -0.23013,-0.55259 -0.14745,-0.14883 -0.34313,-0.23013 -0.5526,-0.23013 -0.42994,0 -0.78135,0.3514 -0.78135,0.78272 0,0.20809 0.0813,0.40515 0.22876,0.5526 0.14745,0.14745 0.34451,0.22875 0.55259,0.22875"
         id="path297669" />
      <path
         style="fill:#f35c17;fill-opacity:1;fill-rule:nonzero;stroke:none;stroke-width:0.352778"
         d="m 690.41212,474.65546 h -4.6371 l -2.95451,6.94118 h -3.41615 l -1.57372,3.74137 h 6.75238 c 0.54157,0 1.49104,-0.51538 1.7887,-1.16582 l 4.0404,-9.51673"
         id="path297671" />
      <path
         style="fill:#f35c17;fill-opacity:1;fill-rule:nonzero;stroke:none;stroke-width:0.352778"
         d="m 702.35007,478.61318 c 0.10748,-0.24391 0.1695,-0.46026 0.48094,-0.46026 h 5.80291 l 1.47726,-3.49746 h -8.58104 c -0.81443,0 -2.38677,0.73174 -3.0372,2.16903 l -2.05328,4.77215 -3.54155,0.001 2.96415,-6.94256 h -4.63572 l -4.58335,10.68256 h 8.6775 l 0.82821,-1.93752 c 0.15709,1.12034 1.01423,1.93752 2.39778,1.93752 h 7.02248 l 2.72577,-6.4258 h -5.19934 l -0.88195,2.08773 h 1.16031 l -0.21773,0.59669 h -1.72255 c -0.31143,0 -0.23013,-0.25769 -0.17501,-0.40652 l 1.09141,-2.57693"
         id="path297673" />
      <path
         style="fill:#f35c17;fill-opacity:1;fill-rule:nonzero;stroke:none;stroke-width:0.352778"
         d="m 707.58248,484.50016 c 0.0827,0 0.12402,-0.0276 0.12402,-0.10335 0,-0.04 -0.0193,-0.1006 -0.11162,-0.1006 h -0.19981 v 0.20395 z m -0.34175,-0.33486 h 0.38447 c 0.20257,0 0.23978,0.14883 0.23978,0.21497 0,0.0841 -0.0427,0.1571 -0.11713,0.18191 0.062,0.0275 0.0965,0.051 0.0965,0.19292 0,0.11162 0,0.13918 0.0331,0.15159 v 0.0207 h -0.17501 c -0.011,-0.0358 -0.0179,-0.0758 -0.0179,-0.15434 0,-0.10335 -0.005,-0.14469 -0.12402,-0.14469 h -0.16537 v 0.29903 h -0.15434 v -0.76205"
         id="path297675" />
      <path
         style="fill:#f35c17;fill-opacity:1;fill-rule:nonzero;stroke:none;stroke-width:0.352778"
         d="m 706.88244,484.54839 c 0,-0.17225 0.0675,-0.3321 0.18879,-0.45475 0.12127,-0.11989 0.28112,-0.18603 0.45199,-0.18603 0.17088,0 0.33211,0.0661 0.45338,0.18603 0.12126,0.12265 0.18741,0.2825 0.18741,0.45475 0,0.35278 -0.28663,0.64079 -0.64079,0.64079 -0.17087,0 -0.33072,-0.0675 -0.45199,-0.18741 -0.12127,-0.12127 -0.18879,-0.2825 -0.18879,-0.45338 m 0.64078,0.78135 c 0.20947,0 0.40515,-0.0813 0.5526,-0.22875 0.14883,-0.14745 0.23013,-0.34451 0.23013,-0.5526 0,-0.20946 -0.0813,-0.40514 -0.23013,-0.55259 -0.14745,-0.14883 -0.34313,-0.23013 -0.5526,-0.23013 -0.42994,0 -0.78135,0.3514 -0.78135,0.78272 0,0.20809 0.0813,0.40515 0.22876,0.5526 0.14745,0.14745 0.34451,0.22875 0.55259,0.22875"
         id="path297677" />
    </g>
  </g>
</svg>
