<svg enable-background="new 0 0 413 92.7" version="1.1" viewBox="0 0 413 92.7" xml:space="preserve" xmlns="http://www.w3.org/2000/svg">
  <style type="text/css">
    .icon {
      fill: #277fa0;
    }

    .text {
      fill: #FFFFFF;
    }
  </style>
	<path class="text" d="m283.99 21.43v44.24h7.6602v-44.24h-7.6602zm-177.63 0.70117v30.34h0.00976c0 1.79-0.55992 3.2188-1.6699 4.2988-1.11 1.07-2.5988 1.6113-4.4688 1.6113h-2.5098v7.2988h2.5098c2.88 0 5.3898-0.55946 7.5098-1.6895 2.12-1.13 3.7602-2.7105 4.9102-4.7305 1.15-2.03 1.7188-4.3903 1.7188-7.0703v-30.059h-8.0098zm251.92 0v8.1797h7.6602v-8.1797h-7.6602zm-20.93 4.5v2.4492c0 1.56-0.42906 2.7403-1.2891 3.5703-0.86 0.82-2.0711 1.2305-3.6211 1.2305h-0.58984v6.8398h5.4902v14.029c0 3.58 0.97922 6.3601 2.9492 8.3301s4.7401 2.9492 8.3301 2.9492c0.59 0 1.2316-0.039141 1.9316-0.11914s1.3191-0.15047 1.8691-0.23047v-6.5488c-0.35 0.04-0.71008 0.079141-1.0801 0.11914-0.36 0.04-0.67922 0.060547-0.94922 0.060547-1.25 0-2.2703-0.20008-3.0703-0.58008-0.8-0.39-1.38-0.96141-1.75-1.6914-0.37-0.74-0.56054-1.6395-0.56054-2.6895v-13.629h7.3105v-6.8398h-7.3105v-7.25h-7.6602zm50.961 6.5391c-3.16 0-5.99 0.72016-8.5 2.1602-2.51 1.44-4.4897 3.4104-5.9297 5.9004-1.44 2.49-2.1602 5.3188-2.1602 8.4688s0.72016 5.99 2.1602 8.5c1.44 2.51 3.4197 4.5009 5.9297 5.9609 2.51 1.46 5.35 2.1895 8.5 2.1895 2.3 0 4.4191-0.39922 6.3691-1.1992 1.95-0.8 3.6212-1.9101 5.0312-3.3301 1.4-1.42 2.4191-3.0303 3.0391-4.8203l-6.7207-3.0391c-0.58 1.67-1.5599 2.9695-2.9199 3.9395-1.36 0.98-2.9591 1.459-4.7891 1.459-1.68 0-3.1707-0.40852-4.4707-1.2285-1.31-0.82-2.3303-1.9506-3.0703-3.3906-0.74-1.44-1.1094-3.1007-1.1094-4.9707s0.36938-3.5288 1.1094-4.9688c0.74-1.44 1.7603-2.5706 3.0703-3.3906 1.3-0.82 2.8007-1.2305 4.4707-1.2305 1.79 0 3.3798 0.49094 4.7598 1.4609s2.3692 2.2594 2.9492 3.8594l6.7207-2.9199c-0.62-1.91-1.6503-3.5495-3.0703-4.9395-1.42-1.38-3.1106-2.4715-5.0606-3.2715-1.95-0.8-4.0486-1.1992-6.3086-1.1992zm-156.69 0.009766c-2.26 0-4.2397 0.50024-5.9297 1.4902-1.31 0.77-2.3303 1.8206-3.0703 3.1406v-3.9199h-7.1894v31.789h7.6602v-18.65c0-1.4 0.27032-2.6089 0.82032-3.6289 0.55-1.01 1.2993-1.8013 2.2793-2.3613 0.97-0.56 2.0801-0.84961 3.3301-0.84961 1.29 0 2.4113 0.28961 3.3613 0.84961 0.95 0.56 1.71 1.3513 2.25 2.3613 0.54 1.02 0.81836 2.2189 0.81836 3.6289v18.641h7.6602v-20.449c0-2.38-0.50954-4.4713-1.5195-6.2812-1.02-1.81-2.4302-3.2302-4.2402-4.2402s-3.8905-1.5195-6.2305-1.5195zm32.092 0c-2.14 0-4.1309 0.35078-5.9609 1.0508-1.83 0.7-3.4198 1.6587-4.7598 2.8887-1.34 1.23-2.3312 2.6813-2.9512 4.3613l6.25 3.0391c0.59-1.44 1.5112-2.5988 2.7812-3.4688 1.27-0.88 2.7196-1.3203 4.3496-1.3203 1.75 0 3.1702 0.45914 4.2402 1.3691s1.6094 2.0599 1.6094 3.4199v1.0312l-9.4688 1.5391c-2.49 0.39-4.5614 1.0502-6.1914 1.9902-1.64 0.94-2.8392 2.1005-3.6192 3.4805-0.77999 1.38-1.1699 2.949-1.1699 4.709 0 1.83 0.44985 3.4403 1.3398 4.8203 0.9 1.39 2.1608 2.4495 3.8008 3.1895s3.5691 1.1113 5.7891 1.1113c1.75 0 3.3491-0.24047 4.7891-0.73047 1.44-0.49 2.7313-1.1896 3.8613-2.0996 0.46-0.37 0.87906-0.80977 1.2891-1.2598v3.3887h7.25v-21.17c0-2.26-0.55992-4.2397-1.6699-5.9297-1.13-1.7-2.6802-3.0205-4.6602-3.9805-1.99-0.96-4.2884-1.4297-6.8984-1.4297zm-127.35 0.009765c-3.15 0-5.9993 0.72016-8.5293 2.1602-2.53 1.44-4.5508 3.4104-6.0508 5.9004s-2.25 5.3393-2.25 8.5293 0.75 6.0413 2.25 8.5312c1.5 2.5 3.5301 4.4604 6.0801 5.9004 2.55 1.44 5.39 2.1582 8.5 2.1582 3.08 0 5.8799-0.7182 8.4199-2.1582 2.53-1.44 4.5601-3.4104 6.0801-5.9004 1.52-2.49 2.2812-5.3413 2.2812-8.5312 0-3.23-0.75-6.0886-2.25-8.5586-1.51-2.48-3.5305-4.4311-6.0605-5.8711-2.53-1.44-5.3607-2.1602-8.4707-2.1602zm73.01 0.33984c-2.24 0-4.139 0.47039-5.709 1.4004-1.21 0.72-2.1806 1.8812-2.8906 3.4512v-4.5h-7.1894v31.789h7.6602v-17.699c0-2.41 0.66024-4.3006 1.9902-5.6406s3.0798-2.0195 5.2598-2.0195h2.75v-6.7812h-1.8711zm-51.1 0.35156v19.459c0 2.61 0.47969 4.8898 1.4297 6.8398 0.95 1.95 2.3404 3.4705 4.1504 4.5605s3.9504 1.6406 6.4004 1.6406c2.26 0 4.2397-0.49094 5.9297-1.4609 1.27-0.73 2.2798-1.7298 3.0098-3.0098v3.7793h7.25v-31.809h-7.6602v18.648h0.00976c0 1.4-0.26836 2.6109-0.81836 3.6309-0.55 1.01-1.3112 1.7994-2.2812 2.3594-0.97 0.57-2.0801 0.84961-3.3301 0.84961-1.25 0-2.3694-0.27961-3.3594-0.84961-0.99-0.56-1.7493-1.3398-2.2793-2.3398-0.53-0.99-0.79101-2.1488-0.79101-3.4688v-18.83h-7.6602zm137.52 0 12.58 31.809-0.71875 1.6797c-0.62 1.33-1.3409 2.4007-2.1309 3.2207-0.8 0.82-2.0701 1.2305-3.8301 1.2305-0.62 0-1.2995-0.059921-2.0195-0.16992-0.72-0.12-1.3298-0.22961-1.8398-0.34961v6.4297c0.66 0.31 1.4007 0.53992 2.2207 0.66992 0.82 0.14 1.6598 0.19922 2.5098 0.19922 1.99 0 3.7491-0.37867 5.2891-1.1387 1.54-0.76 2.8906-1.8608 4.0606-3.3008 1.17-1.44 2.1605-3.1898 2.9805-5.2598l13.85-35.01h-8.3008l-8.1699 21.92-8.2402-21.93h-8.2402zm62.49 0v31.789h7.6602v-31.789h-7.6602zm-221.93 6.3086c1.71 0 3.2212 0.41977 4.5312 1.2598 1.3 0.84 2.3396 1.9706 3.0996 3.3906 0.76 1.42 1.1387 3.0695 1.1387 4.9395 0 1.83-0.37867 3.4814-1.1387 4.9414-0.76 1.46-1.7896 2.5999-3.0996 3.4199s-2.8212 1.2285-4.5312 1.2285c-1.75 0-3.2891-0.40852-4.6191-1.2285s-2.3709-1.9599-3.1309-3.4199c-0.76-1.46-1.1387-3.1114-1.1387-4.9414 0-1.87 0.37867-3.5195 1.1387-4.9395 0.76-1.42 1.8009-2.5506 3.1309-3.3906s2.8691-1.2598 4.6191-1.2598zm132.9 11.211v1.2988c0.01 1.45-0.32977 2.7705-1.0098 3.9805-0.67999 1.21-1.6411 2.1501-2.8711 2.8301-1.23 0.69-2.6383 1.0195-4.2383 1.0195-1.25 0-2.2909-0.31898-3.1309-0.95898-0.84-0.64-1.2598-1.5096-1.2598-2.5996 0-1.13 0.36938-2.04 1.1094-2.75 0.74-0.7 1.8706-1.1909 3.3906-1.4609l8.0098-1.3594z" />
	<path class="icon" d="m9.2402 20.4v48.67h25.02c4.63 0 8.5205 1.8498 10.48 3.8398 0.55 0.56 1.44 0.46016 2-0.089844 2.16-2.12 6.2799-3.75 10.92-3.75h25.02v-48.67h-25.01c-5.86 0-9.5792 1.4788-11.699 3.4688-2.12-1.99-5.8412-3.4688-11.701-3.4688h-25.029zm4.6289 4.6289h20.4c6.16 0 9.3906 1.9509 9.3906 3.8809v37.42c-2.39-1.22-5.6006-1.8809-9.3906-1.8809h-20.4v-39.42zm61.361 2.4512 1.0391 11.969-3.9102-1.9395-6.2188 12.76-6.9199-5.6289-5.0098 7.1602-3.4414-2.3008 7.6797-10.85 6.4512 4.9004 3.75-7.8809-3.5801-1.7793 10.16-6.4102zm-56.281 4.6387v4.6309h18.08v-4.6309h-18.08zm0 10.75v4.6309h18.08v-4.6309h-18.08zm0 10.762v4.6289h18.08v-4.6289h-18.08zm32.49 0.83984h23.291v4.1387h-23.291v-4.1387z" />
</svg>

