<?xml version="1.0" encoding="utf-8"?>
<!-- Generator: Adobe Illustrator 21.0.2, SVG Export Plug-In . SVG Version: 6.00 Build 0)  -->
<svg version="1.1" id="Logo" xmlns="http://www.w3.org/2000/svg" xmlns:xlink="http://www.w3.org/1999/xlink" x="0px" y="0px"
	 viewBox="0 0 584.4 565.5" style="enable-background:new 0 0 584.4 565.5;" xml:space="preserve">
<style type="text/css">
	.st0{fill:#58595B;}
	.st1{fill:#CF202F;}
	.st2{fill:#FFFFFF;}
	.st3{fill:#233F95;}
	.st4{fill:#1D9B48;}
</style>
<title>Biohazard logo 2016</title>
<path id="Gear" class="st0" d="M361.8,449.6l11.1,15.1l49.6-35.4l-10.9-14.9c14.1-14.2,25.5-30.9,33.7-49.1l19.1,4.2l14.4-58
	l-19.1-4.2l0,0.1c1.2-19.8-1.3-39.5-7.4-58.4l17.2-9.4l-28.7-51.8L424,197c-12.7-15.5-28.2-28.4-45.6-38.3l6.6-17.6l-56.9-19.6
	l-6.6,17.5c-20.4-3.1-41.3-2.5-61.5,1.8l-6.7-17l-56.7,22.5l6.9,17.3c-17.5,11-32.9,25.1-45.4,41.5l-16.7-8.1l-27.8,53.4l17.3,8.3
	c-5.7,19.3-7.8,39.5-6.1,59.6l-18.6,5.2l15.4,57.2l19.1-5.3l-0.1-0.3c8.9,18.2,21.3,34.5,36.3,48.1L166.6,439l50.8,31.5l10.4-15.7
	c41.1,15.7,86.7,14.9,127.3-2.2C357.3,451.7,359.6,450.6,361.8,449.6z M180.9,348c-24.9-59.6,4.8-128.6,66.2-154.2
	s131.3,1.9,156.2,61.4s-4.8,128.6-66.2,154.2S205.8,407.5,180.9,348z"/>
<g id="Layer_2">
	<g id="Red_Things">
		<polygon class="st1" points="178.3,386.4 207.4,411.7 200.3,420.3 171.2,395 		"/>
		<polygon class="st1" points="154.6,365.1 140.6,330.3 150.6,325.7 155.9,338.1 164.9,333.8 168.8,343.6 159.9,347.9 164.6,360.5 
					"/>
		<polygon class="st1" points="227.4,440.5 232.1,424.7 258.8,433.1 256.3,441.5 237,435.3 234.6,442.8 		"/>
		<rect x="140.9" y="285.5" class="st1" width="12.4" height="12.8"/>
	</g>
	<g id="White_Things">
		<polygon class="st2" points="195.4,186.5 224.7,164.3 231.5,173.3 221.1,181.5 227.4,189.5 219.2,195.6 212.9,187.7 202.2,195.5 
					"/>
		<polygon class="st2" points="356.9,181.6 367.4,169 388.5,187.8 383,194.4 367.7,180.8 362.6,186.7 		"/>
		<polygon class="st2" points="261.8,154.4 273.2,152.6 274.9,165.3 263.5,167.1 		"/>
		<polygon class="st2" points="331.7,160.2 330,168.9 307.8,164.1 309.5,155.5 		"/>
	</g>
	<g id="Blue_Things">
		<polygon class="st3" points="442.6,314.4 436.4,341.5 428.5,339.9 430.5,330.1 423.4,328.8 425.2,321.2 432.3,322.5 434.7,312.8 
					"/>
		<polygon class="st3" points="385.5,390.7 395.5,403.6 373.8,421.6 368.5,414.9 384.3,401.8 379.6,395.6 		"/>
		<polygon class="st3" points="409,379.8 417.8,363 423.5,366.2 414.7,382.9 		"/>
		<polygon class="st3" points="350,430.3 352.2,436.6 335.8,442.6 333.6,436.2 		"/>
		<rect x="435.6" y="282.4" class="st3" width="9.9" height="9"/>
	</g>
</g>
<g id="Biohazard">
	<path class="st4" d="M297.7,264.9v9.8c16.9,2.7,29.9,17.9,29.9,36c0,4.5-0.8,8.9-2.4,13.1l8.4,5c38.2-62.1,117.4-82.5,179.8-45.4
		c48,28.6,72.3,83.4,65.8,136.8c19.1-80.2-14.2-167-87.1-210.5c-5.1-3-10.3-5.8-15.5-8.3c0.6-6,0.8-12.1,0.8-18.2
		c0-86.8-56.1-160-133.1-183.1c48.1,20.9,81.9,70,81.9,127.2C426.1,201.5,369.1,262,297.7,264.9z M351,289.4
		c-7.3,0.2-13.3-5.5-13.6-12.8c-0.2-7.3,5.5-13.3,12.8-13.6c7.3-0.2,13.3,5.5,13.6,12.8c0,0.1,0,0.3,0,0.4
		C363.9,283.4,358.2,289.3,351,289.4z M395.2,255.3c-0.1,4.4-3.8,7.9-8.2,7.8s-7.9-3.8-7.8-8.2c0.1-4.4,3.7-7.8,8-7.8
		C391.7,247.2,395.2,250.9,395.2,255.3L395.2,255.3z"/>
	<path class="st4" d="M5.3,419.7C-1.3,366.3,23.1,311.6,71.2,283c62.4-37.1,141.8-16.4,179.9,45.9l8.3-4.9
		c-1.6-4.2-2.4-8.7-2.4-13.3c0-18.2,13-33.3,29.9-36v-9.8c-71.2-3.1-128.1-63.6-128-137.8c0-57.2,33.9-106.3,82-127.1
		c-77,23-133.2,96.2-133.3,183c0,6.1,0.3,12.1,0.8,18c-5.3,2.5-10.6,5.3-15.7,8.4C19.6,252.7-13.8,339.4,5.3,419.7z M236.4,263
		c7.3-0.2,13.3,5.5,13.6,12.8c0.2,7.3-5.5,13.3-12.8,13.6s-13.3-5.5-13.6-12.8c0-0.1,0-0.3,0-0.4C223.5,269,229.3,263.1,236.4,263z
		 M199.5,247c4.5-0.1,8.3,3.5,8.4,8c0.1,4.5-3.5,8.3-8,8.4c-4.5,0.1-8.3-3.5-8.4-8c0-0.1,0-0.1,0-0.2
		C191.5,250.7,195,247.1,199.5,247C199.5,247,199.5,247,199.5,247L199.5,247z"/>
	<path class="st4" d="M277.4,539.7c5.1-3,10-6.3,14.7-9.7c4.8,3.5,9.7,6.8,14.9,9.9c72.9,43.4,162.5,29.8,220.4-27.3
		c-41.6,32.5-99.7,38.1-147.8,9.5c-62.4-37.2-84.7-118.4-51.4-183.5l-8.4-5c-11.6,15.2-33.4,18.1-48.6,6.5c-2.4-1.8-4.6-4-6.4-6.4
		l-8.3,5c33,65.1,10.6,146.1-51.7,183.2c-48.1,28.6-106.2,22.9-147.8-9.7C114.9,569.3,204.5,583,277.4,539.7z M292.3,423.1
		c-4.5,0.1-8.3-3.5-8.4-8c-0.1-4.5,3.5-8.3,8-8.4c4.5-0.1,8.3,3.5,8.4,8c0,0.1,0,0.1,0,0.2C300.3,419.3,296.8,423,292.3,423.1
		C292.3,423.1,292.3,423.1,292.3,423.1L292.3,423.1z M292.3,363.6c7.3-0.2,13.4,5.5,13.6,12.7c0.2,7.3-5.5,13.4-12.7,13.6
		c-7.3,0.2-13.4-5.5-13.6-12.7c0-0.1,0-0.3,0-0.4C279.4,369.6,285.1,363.7,292.3,363.6L292.3,363.6z"/>
</g>
</svg>
