<?xml version="1.0" encoding="UTF-8"?><svg id="Layer_2" xmlns="http://www.w3.org/2000/svg" viewBox="0 0 2812.99 744.9"><g id="Black_Full_Width"><g><path d="m850,290.53c3.64,0,5.98,1.82,5.98,5.46v2.6c0,8.06,3.38,11.95,12.21,11.95h74.83c13.77,0,17.15-3.38,17.15-14.29v-12.47c0-10.91-3.38-14.29-17.15-14.29h-83.41c-29.36,0-42.35-12.73-42.35-40.54v-25.72c0-27.8,12.99-40.54,42.35-40.54h96.66c31.18,0,42.35,10.65,42.35,40.54v8.06c0,3.64-2.08,5.46-5.72,5.46h-29.36c-3.9,0-5.72-1.82-5.72-5.46v-2.6c0-8.05-3.64-11.95-12.73-11.95h-68.6c-13.77,0-17.15,3.38-17.15,14.29v10.65c0,11.17,3.38,14.55,17.15,14.55h83.15c29.62,0,42.61,12.47,42.61,40.54v27.28c0,27.8-12.99,40.54-42.61,40.54h-102.38c-31.18,0-42.35-10.65-42.35-40.54v-8.06c0-3.64,2.08-5.46,5.72-5.46h29.36Z"/><path d="m1176.36,307.42c0,25.72-11.43,37.16-38.72,37.16h-67.56c-27.02,0-38.72-11.43-38.72-37.16v-62.36c0-25.72,11.69-37.16,38.72-37.16h67.56c27.28,0,38.72,11.43,38.72,37.16v62.36Zm-38.2-52.49c0-13.51-2.6-16.11-18.71-16.11h-30.92c-16.37,0-18.97,2.6-18.97,16.11v42.61c0,13.51,2.6,16.11,18.97,16.11h30.92c16.11,0,18.71-2.6,18.71-16.11v-42.61Z"/><path d="m1248.6,297.54c0,13.51,2.86,16.11,18.97,16.11h19.75c17.15,0,23.91-7.02,23.91-21.31v-79.51c0-3.12,1.82-4.94,5.2-4.94h27.8c3.12,0,4.94,1.82,4.94,4.94v126.8c0,3.12-1.82,4.94-4.94,4.94h-23.39c-3.64,0-5.46-1.82-5.46-4.94v-18.71c-4.68,15.59-16.89,23.65-37.68,23.65h-28.32c-27.02,0-38.98-11.43-38.98-37.16v-94.58c0-3.12,2.08-4.94,5.2-4.94h27.8c3.38,0,5.2,1.82,5.2,4.94v84.71Z"/><path d="m1431.27,238.82v62.88c0,9.35,2.6,11.95,11.43,11.95h20.01c3.64,0,5.2,1.56,5.2,4.94v21.05c0,3.12-1.56,4.94-5.2,4.94h-32.22c-26.24,0-37.42-10.65-37.42-35.86v-69.9h-12.99c-3.12,0-5.2-1.56-5.2-4.94v-21.05c0-3.12,2.08-4.94,5.2-4.94h12.99v-29.88c0-3.12,1.82-4.94,5.2-4.94h27.54c3.64,0,5.46,1.82,5.46,4.94v29.88h31.44c3.64,0,5.2,1.82,5.2,4.94v21.05c0,3.38-1.56,4.94-5.2,4.94h-31.44Z"/><path d="m1598.61,254.93c0-13.51-2.6-16.11-18.97-16.11h-19.49c-17.15,0-23.91,7.02-23.91,21.31v79.51c0,3.12-1.56,4.94-5.2,4.94h-27.54c-3.64,0-5.46-1.82-5.46-4.94v-182.41c0-3.12,1.82-4.94,5.46-4.94h27.54c3.64,0,5.2,1.82,5.2,4.94v68.86c5.72-11.95,17.41-18.19,35.6-18.19h26.24c27.02,0,38.72,11.43,38.72,37.16v94.58c0,3.12-1.82,4.94-5.2,4.94h-27.54c-3.38,0-5.46-1.82-5.46-4.94v-84.71Z"/><path d="m1929.13,284.29c3.64,0,5.72,2.08,5.72,5.46v14.29c0,29.88-11.17,40.54-42.35,40.54h-96.14c-29.62,0-43.65-12.99-43.65-41.58v-98.74c0-28.58,14.03-41.58,43.65-41.58h96.14c31.18,0,42.35,10.65,42.35,40.54v14.29c0,3.38-2.08,5.46-5.72,5.46h-29.36c-3.9,0-5.72-2.08-5.72-5.46v-8.83c0-8.05-3.9-11.95-12.73-11.95h-63.4c-19.23,0-23.12,3.38-23.12,19.49v74.83c0,16.11,3.9,19.49,23.12,19.49h63.4c8.83,0,12.73-3.9,12.73-11.95v-8.83c0-3.38,1.82-5.46,5.72-5.46h29.36Z"/><path d="m2003.7,344.57c-27.02,0-38.72-11.43-38.72-37.16v-62.36c0-25.72,11.69-37.16,38.72-37.16h67.04c25.46,0,36.64,10.65,36.64,34.82v40.54c0,3.38-1.82,4.94-5.46,4.94h-98.74v9.61c0,13.51,2.6,16.11,18.97,16.11h38.72c6.24,0,9.35-2.08,9.35-7.8,0-3.12,1.82-4.94,5.2-4.94h26.5c3.64,0,5.46,1.82,5.46,4.94v3.64c0,24.42-10.91,34.82-36.38,34.82h-67.3Zm-.52-81.59h66.52v-15.07c0-6.76-3.64-9.35-10.65-9.35h-36.9c-16.37,0-18.97,2.6-18.97,16.11v8.31Z"/><path d="m2243.54,254.93c0-13.51-2.6-16.11-18.97-16.11h-19.49c-17.15,0-23.91,7.02-23.91,21.31v79.51c0,3.12-1.56,4.94-5.2,4.94h-27.54c-3.64,0-5.46-1.82-5.46-4.94v-126.8c0-3.12,1.82-4.94,5.46-4.94h23.13c3.64,0,5.46,1.82,5.46,4.94v18.71c4.42-15.59,16.89-23.65,37.68-23.65h28.32c27.02,0,38.72,11.43,38.72,37.16v94.58c0,3.12-1.82,4.94-5.2,4.94h-27.54c-3.38,0-5.46-1.82-5.46-4.94v-84.71Z"/><path d="m2362.03,238.82v62.88c0,9.35,2.6,11.95,11.43,11.95h20.01c3.64,0,5.2,1.56,5.2,4.94v21.05c0,3.12-1.56,4.94-5.2,4.94h-32.22c-26.24,0-37.42-10.65-37.42-35.86v-69.9h-12.99c-3.12,0-5.2-1.56-5.2-4.94v-21.05c0-3.12,2.08-4.94,5.2-4.94h12.99v-29.88c0-3.12,1.82-4.94,5.2-4.94h27.54c3.64,0,5.46,1.82,5.46,4.94v29.88h31.44c3.64,0,5.2,1.82,5.2,4.94v21.05c0,3.38-1.56,4.94-5.2,4.94h-31.44Z"/><path d="m2500,238.82c-23.13,0-33,11.69-33,31.44v69.38c0,3.12-1.56,4.94-5.2,4.94h-27.54c-3.64,0-5.46-1.82-5.46-4.94v-126.8c0-3.12,1.82-4.94,5.46-4.94h23.13c3.38,0,5.2,1.82,5.2,4.94v20.53c4.42-16.89,17.15-25.46,39.76-25.46h9.35c3.38,0,5.2,1.82,5.2,4.94v21.05c0,3.38-1.82,4.94-5.2,4.94h-11.69Z"/><path d="m2535.08,310.01v-12.21c0-26.76,10.13-34.56,35.86-34.56h66.52v-8.58c0-13.51-2.86-16.11-18.97-16.11h-32.48c-6.24,0-9.09,2.08-9.09,7.79,0,3.38-1.82,5.2-5.46,5.2h-26.5c-3.38,0-5.46-1.82-5.46-5.2v-3.64c0-24.42,10.91-34.82,36.38-34.82h61.06c26.76,0,38.72,11.43,38.72,37.16v63.14c0,3.64,1.82,5.46,5.72,5.46h1.56c3.38,0,5.2,1.56,5.2,4.94v21.05c0,3.12-1.82,4.94-5.2,4.94h-17.93c-17.15,0-24.42-8.05-24.42-22.09-5.2,14.55-17.41,22.09-37.42,22.09h-32.22c-25.72,0-35.86-9.35-35.86-34.56Zm102.38-17.41v-4.16h-53.53c-7.02,0-10.65,2.6-10.65,9.35v6.76c0,6.76,3.38,9.35,10.65,9.35h29.62c17.15,0,23.91-6.76,23.91-21.31Z"/><path d="m2768.68,313.65c3.38,0,5.2,1.56,5.2,4.94v21.05c0,3.12-1.82,4.94-5.2,4.94h-19.23c-24.94,0-35.08-9.61-35.08-33.52v-153.83c0-3.12,2.08-4.94,5.2-4.94h27.8c3.38,0,5.2,1.82,5.2,4.94v147.59c0,6.24,2.34,8.83,9.87,8.83h6.24Z"/><path d="m844.89,522.37c3.23,0,5.31,1.62,5.31,4.85v2.31c0,7.16,3,10.62,10.86,10.62h66.52c12.24,0,15.24-3,15.24-12.7v-11.09c0-9.7-3-12.7-15.24-12.7h-74.14c-26.1,0-37.65-11.32-37.65-36.03v-22.87c0-24.71,11.55-36.03,37.65-36.03h85.92c27.72,0,37.65,9.47,37.65,36.03v7.16c0,3.23-1.85,4.85-5.08,4.85h-26.1c-3.46,0-5.08-1.62-5.08-4.85v-2.31c0-7.16-3.23-10.62-11.32-10.62h-60.98c-12.24,0-15.24,3-15.24,12.7v9.47c0,9.93,3,12.93,15.24,12.93h73.91c26.33,0,37.88,11.09,37.88,36.03v24.25c0,24.71-11.55,36.03-37.88,36.03h-91c-27.72,0-37.65-9.47-37.65-36.03v-7.16c0-3.23,1.85-4.85,5.08-4.85h26.1Z"/><path d="m1050.22,438.99h-57.28c-3.46,0-5.08-1.85-5.08-4.85v-20.56c0-3,1.62-4.85,5.08-4.85h151.75c3.46,0,5.08,1.85,5.08,4.85v20.56c0,3-1.62,4.85-5.08,4.85h-57.05v126.57c0,3-2.08,4.85-5.31,4.85h-27.02c-3.23,0-5.08-1.85-5.08-4.85v-126.57Z"/><path d="m1316.53,408.73c3.23,0,5.08,1.85,5.08,4.85v20.56c0,3-1.85,4.85-5.08,4.85h-114.56v35.11h96.32c3.23,0,5.31,1.62,5.31,4.85v19.86c0,3-2.08,4.85-5.31,4.85h-96.32v36.49h114.56c3.23,0,5.08,1.85,5.08,4.85v20.56c0,3-1.85,4.85-5.08,4.85h-146.9c-3.46,0-5.08-1.85-5.08-4.85v-151.98c0-3,1.62-4.85,5.08-4.85h146.9Z"/><path d="m1397.6,408.73c3.93,0,6.01,1.39,7.16,4.62l44.35,119.64,44.12-119.64c1.15-3.23,3.23-4.62,7.16-4.62h50.12c3.46,0,5.31,1.85,5.31,4.85v151.98c0,3-1.85,4.85-5.31,4.85h-27.02c-3.23,0-5.08-1.85-5.08-4.85v-125.88l-47.81,126.11c-.92,3.23-3.23,4.62-7.16,4.62h-30.49c-4.16,0-6-1.39-7.16-4.62l-48.04-126.57v126.34c0,3-1.85,4.85-5.08,4.85h-24.48c-3.46,0-5.08-1.85-5.08-4.85v-151.98c0-3,1.62-4.85,5.08-4.85h49.43Z"/><path d="m1799.49,516.83c3.23,0,5.08,1.85,5.08,4.85v12.7c0,26.56-9.93,36.03-37.65,36.03h-85.46c-26.33,0-38.8-11.55-38.8-36.96v-87.77c0-25.41,12.47-36.96,38.8-36.96h85.46c27.72,0,37.65,9.47,37.65,36.03v12.7c0,3-1.85,4.85-5.08,4.85h-26.1c-3.46,0-5.08-1.85-5.08-4.85v-7.85c0-7.16-3.46-10.62-11.32-10.62h-56.36c-17.09,0-20.56,3-20.56,17.32v66.52c0,14.32,3.46,17.32,20.56,17.32h56.36c7.85,0,11.32-3.46,11.32-10.62v-7.85c0-3,1.62-4.85,5.08-4.85h26.1Z"/><path d="m1951.01,537.38c0,22.87-10.16,33.03-34.42,33.03h-60.05c-24.02,0-34.42-10.16-34.42-33.03v-55.43c0-22.87,10.39-33.03,34.42-33.03h60.05c24.25,0,34.42,10.16,34.42,33.03v55.43Zm-33.95-46.66c0-12.01-2.31-14.32-16.63-14.32h-27.49c-14.55,0-16.86,2.31-16.86,14.32v37.88c0,12.01,2.31,14.32,16.86,14.32h27.49c14.32,0,16.63-2.31,16.63-14.32v-37.88Z"/><path d="m2020.07,542.93c3,0,4.62,1.39,4.62,4.39v18.71c0,2.77-1.62,4.39-4.62,4.39h-17.09c-22.17,0-31.18-8.55-31.18-29.8v-136.74c0-2.77,1.85-4.39,4.62-4.39h24.71c3,0,4.62,1.62,4.62,4.39v131.19c0,5.54,2.08,7.85,8.78,7.85h5.54Z"/><path d="m2086.82,542.93c3,0,4.62,1.39,4.62,4.39v18.71c0,2.77-1.62,4.39-4.62,4.39h-17.09c-22.17,0-31.18-8.55-31.18-29.8v-136.74c0-2.77,1.85-4.39,4.62-4.39h24.71c3,0,4.62,1.62,4.62,4.39v131.19c0,5.54,2.08,7.85,8.78,7.85h5.54Z"/><path d="m2138.55,570.41c-24.02,0-34.42-10.16-34.42-33.03v-55.43c0-22.87,10.39-33.03,34.42-33.03h59.59c22.64,0,32.57,9.47,32.57,30.95v36.03c0,3-1.62,4.39-4.85,4.39h-87.77v8.55c0,12.01,2.31,14.32,16.86,14.32h34.42c5.54,0,8.31-1.85,8.31-6.93,0-2.77,1.62-4.39,4.62-4.39h23.56c3.23,0,4.85,1.62,4.85,4.39v3.23c0,21.71-9.7,30.95-32.34,30.95h-59.82Zm-.46-72.53h59.13v-13.4c0-6-3.23-8.31-9.47-8.31h-32.8c-14.55,0-16.86,2.31-16.86,14.32v7.39Z"/><path d="m2343.66,530.68c0-2.77,1.62-4.39,4.62-4.39h23.56c3.23,0,4.85,1.62,4.85,4.39v8.78c0,21.71-9.7,30.95-32.34,30.95h-59.82c-24.02,0-34.42-10.16-34.42-33.03v-55.43c0-22.87,10.39-33.03,34.42-33.03h59.82c22.63,0,32.34,9.24,32.34,30.95v8.78c0,2.77-1.62,4.39-4.85,4.39h-23.56c-3,0-4.62-1.62-4.62-4.39v-4.39c0-5.54-3.23-7.85-9.24-7.85h-33.49c-14.55,0-16.86,2.31-16.86,14.32v37.88c0,12.01,2.31,14.32,16.86,14.32h33.49c6,0,9.24-2.31,9.24-7.85v-4.39Z"/><path d="m2435.12,476.41v55.9c0,8.31,2.31,10.62,10.16,10.62h17.79c3.23,0,4.62,1.39,4.62,4.39v18.71c0,2.77-1.39,4.39-4.62,4.39h-28.64c-23.33,0-33.26-9.47-33.26-31.87v-62.13h-11.55c-2.77,0-4.62-1.39-4.62-4.39v-18.71c0-2.77,1.85-4.39,4.62-4.39h11.55v-26.56c0-2.77,1.62-4.39,4.62-4.39h24.48c3.23,0,4.85,1.62,4.85,4.39v26.56h27.95c3.23,0,4.62,1.62,4.62,4.39v18.71c0,3-1.39,4.39-4.62,4.39h-27.95Z"/><path d="m2485.24,406.88c0-3,1.62-4.39,4.85-4.39h24.48c3.23,0,4.62,1.39,4.62,4.39v18.94c0,3-1.39,4.39-4.62,4.39h-24.48c-3.23,0-4.85-1.39-4.85-4.39v-18.94Zm0,46.43c0-2.77,1.62-4.39,4.85-4.39h24.48c3.23,0,4.62,1.62,4.62,4.39v112.71c0,2.77-1.39,4.39-4.62,4.39h-24.48c-3.23,0-4.85-1.62-4.85-4.39v-112.71Z"/><path d="m2531.44,453.31c-.92-2.77.23-4.39,2.54-4.39h27.72c3.93,0,5.54,1.15,6.47,4.16l33.49,90.54,33.72-90.54c.92-3,2.54-4.16,6.47-4.16h26.1c2.31,0,3.7,1.62,2.54,4.39l-45.96,112.95c-1.15,3-2.77,4.16-6.47,4.16h-34.18c-3.7,0-5.31-1.16-6.47-4.16l-45.96-112.95Z"/><path d="m2714.13,570.41c-24.02,0-34.42-10.16-34.42-33.03v-55.43c0-22.87,10.39-33.03,34.42-33.03h59.59c22.64,0,32.57,9.47,32.57,30.95v36.03c0,3-1.62,4.39-4.85,4.39h-87.77v8.55c0,12.01,2.31,14.32,16.86,14.32h34.42c5.54,0,8.31-1.85,8.31-6.93,0-2.77,1.62-4.39,4.62-4.39h23.56c3.23,0,4.85,1.62,4.85,4.39v3.23c0,21.71-9.7,30.95-32.34,30.95h-59.82Zm-.46-72.53h59.13v-13.4c0-6-3.23-8.31-9.47-8.31h-32.8c-14.55,0-16.86,2.31-16.86,14.32v7.39Z"/></g><g id="Bulb"><path d="m738.89,308.03c-3.9-3.9-9.18-6.09-14.69-6.1-14.86,0-29.39-4.4-41.75-12.65-12.36-8.25-21.99-19.99-27.67-33.72-5.68-13.73-7.17-28.84-4.26-43.42,2.91-14.57,10.07-27.96,20.59-38.46,3.89-3.9,6.07-9.19,6.07-14.7s-2.18-10.8-6.07-14.7l-70.4-70.4c-1.93-1.93-4.22-3.46-6.74-4.51-2.52-1.04-5.23-1.58-7.96-1.58s-5.43.54-7.96,1.58c-2.52,1.04-4.81,2.58-6.74,4.51-6.87,6.99-15.07,12.55-24.1,16.35-9.04,3.8-18.74,5.77-28.54,5.79-19.37-.1-38-7.47-52.19-20.65-7.47-6.99-13.41-15.45-17.44-24.86-4.03-9.4-6.06-19.54-5.96-29.77-.02-5.49-2.21-10.75-6.1-14.64-3.88-3.88-9.15-6.08-14.64-6.1h-99.56c-5.51,0-10.8,2.2-14.69,6.1-3.9,3.9-6.09,9.18-6.1,14.69,0,47.09-38.45,75.23-75.6,75.23-9.8-.02-19.51-1.99-28.54-5.79-9.04-3.8-17.23-9.36-24.1-16.35-1.93-1.93-4.22-3.46-6.74-4.51-2.52-1.04-5.23-1.58-7.96-1.58s-5.43.54-7.96,1.58c-2.52,1.04-4.81,2.58-6.74,4.51l-70.4,70.4c-1.93,1.93-3.46,4.22-4.51,6.74-1.04,2.52-1.58,5.23-1.58,7.96s.54,5.43,1.58,7.96c1.04,2.52,2.58,4.81,4.51,6.74,10.63,10.42,17.87,23.81,20.77,38.41,2.9,14.6,1.31,29.74-4.54,43.43-5.55,13.81-15.14,25.63-27.52,33.9-12.38,8.27-26.97,12.61-41.85,12.46-5.51,0-10.8,2.2-14.69,6.1-3.9,3.9-6.09,9.18-6.1,14.69v99.56c0,5.51,2.2,10.8,6.1,14.69,3.9,3.9,9.18,6.09,14.69,6.1,14.9-.17,29.5,4.17,41.88,12.44,12.39,8.27,21.99,20.1,27.54,33.92,5.85,13.69,7.42,28.83,4.51,43.44-2.91,14.6-10.15,27.99-20.8,38.4-3.89,3.91-6.07,9.19-6.07,14.7s2.18,10.8,6.07,14.7l70.35,70.4c1.93,1.93,4.22,3.46,6.74,4.51,2.52,1.05,5.23,1.58,7.96,1.58s5.43-.54,7.96-1.58c2.52-1.04,4.81-2.58,6.74-4.51,6.88-6.99,15.07-12.54,24.11-16.34,9.04-3.8,18.74-5.77,28.54-5.79,37.18,0,75.6,28.13,75.6,75.22,0,5.51,2.2,10.8,6.1,14.69,3.9,3.9,9.18,6.09,14.69,6.1h99.51c5.51,0,10.8-2.2,14.69-6.1,3.9-3.9,6.09-9.18,6.1-14.69,0-47.09,38.45-75.22,75.6-75.22,9.8.02,19.5,1.99,28.54,5.79,9.04,3.8,17.23,9.35,24.11,16.34,1.93,1.93,4.22,3.46,6.75,4.51,2.52,1.05,5.23,1.58,7.95,1.58s5.43-.54,7.96-1.58c2.52-1.04,4.81-2.58,6.75-4.51l70.44-70.29c3.89-3.9,6.07-9.19,6.07-14.7s-2.18-10.8-6.07-14.7c-10.52-10.5-17.68-23.89-20.59-38.46-2.91-14.57-1.42-29.68,4.26-43.41,5.68-13.73,15.32-25.47,27.67-33.72,12.36-8.26,26.89-12.66,41.75-12.65,5.51,0,10.8-2.2,14.69-6.1,3.9-3.9,6.09-9.18,6.1-14.69v-99.56c0-5.51-2.2-10.8-6.1-14.69Zm-323.53,308.81c-1.74,5.89-7.13,9.7-12.97,9.7-1.27,0-2.56-.18-3.85-.56l-66.1-19.56c-7.17-2.12-11.26-9.65-9.14-16.82,2.12-7.17,9.65-11.26,16.82-9.14l66.1,19.56c7.17,2.12,11.26,9.65,9.14,16.82Zm20.1-39.7c-1.74,5.89-7.13,9.7-12.97,9.7-1.27,0-2.56-.18-3.85-.56l-101.19-29.94c-7.17-2.12-11.26-9.65-9.14-16.82,2.12-7.17,9.65-11.26,16.82-9.14l101.19,29.94c7.17,2.12,11.26,9.65,9.14,16.82Zm49.99-172.73c-1.65,1.58-3.37,3.21-5.14,4.88-18.8,17.8-44.55,42.18-44.55,64.07v54.22c0,4.31-2.05,8.36-5.53,10.91l-.36.26c-2.35,1.72-5.16,2.62-8.01,2.62-1.29,0-2.58-.18-3.84-.56l-98.37-29.1c-1.4-.41-2.72-1.05-3.92-1.89l-.72-.5c-3.62-2.53-5.78-6.67-5.78-11.09v-24.87c0-22.55-26.26-47.06-45.43-64.96-1.44-1.34-2.83-2.65-4.18-3.92-31.67-29.89-49.83-74.23-49.85-121.67-.23-21.61,3.76-42.72,11.87-62.75,8.11-20.05,19.94-38.02,35.15-53.4,15.21-15.38,33.05-27.4,53.01-35.74,19.96-8.33,41.05-12.56,62.69-12.56s42.73,4.23,62.69,12.56c19.96,8.33,37.8,20.36,53.01,35.74,15.21,15.38,27.04,33.35,35.15,53.4,8.1,20.03,12.1,41.14,11.87,62.75-.02,48.46-17.23,90.5-49.77,121.6Z"/><path id="Filament" d="m423.24,357.92l-101.19-29.94,50.32,14.76.13,185.14" style="fill:none; stroke:#000; stroke-linecap:round; stroke-linejoin:round; stroke-width:31.48px;"/></g></g></svg>