<?xml version="1.0" encoding="utf-8"?>
<!-- Generator: Adobe Illustrator 26.0.3, SVG Export Plug-In . SVG Version: 6.00 Build 0)  -->
<svg version="1.1" xmlns="http://www.w3.org/2000/svg" xmlns:xlink="http://www.w3.org/1999/xlink" x="0px" y="0px"
	 viewBox="0 0 792 792" style="enable-background:new 0 0 792 792;" xml:space="preserve">
<style type="text/css">
	.st0{fill:#FFFFFF;}
</style>
<g id="gear-423">
	<g>
		<path d="M293.4,215.6l-12.5-25.9l20-9.7c1.3-0.6,2.7-0.7,4.1-0.2c1.4,0.5,2.5,1.4,3.1,2.7l2.5,5.2c0.2,0.3,0.3,0.7,0.4,1
			c0.1,0.3,0.1,0.7,0.1,1c0.7,0.4,1.4,0.8,1.9,1.3c0.5,0.5,0.9,1,1.2,1.6l2.7,5.7c0.6,1.3,0.7,2.7,0.2,4.1c-0.5,1.4-1.4,2.4-2.8,3.1
			L293.4,215.6z M291.6,197.5l13.6-6.6c0.6-0.3,0.9-0.5,1-0.7c0.1-0.2-0.1-0.6-0.3-1.2l-1.8-3.6c-0.3-0.6-0.5-0.9-0.7-1
			c-0.2-0.1-0.6,0.1-1.2,0.3l-13.6,6.6c-0.6,0.3-0.9,0.5-1,0.7c-0.1,0.2,0,0.6,0.3,1.2l1.8,3.6c0.3,0.6,0.5,0.9,0.7,1
			C290.6,197.9,291,197.8,291.6,197.5z M296.9,208.5l14.7-7.1c0.6-0.3,0.9-0.5,1-0.7c0.1-0.2,0-0.6-0.3-1.2l-2-4.1
			c-0.3-0.6-0.5-0.9-0.7-1c-0.2-0.1-0.6,0.1-1.2,0.3l-14.7,7.1c-0.6,0.3-0.9,0.5-1,0.7c-0.1,0.2,0,0.6,0.3,1.2l2,4.1
			c0.3,0.6,0.5,0.9,0.7,1C295.9,208.9,296.3,208.8,296.9,208.5z"/>
		<path d="M313.9,177.9l-1.6-4.5l4.5-1.6l1.6,4.5L313.9,177.9z M322.8,202.3l-8-21.8l4.5-1.6l8,21.8L322.8,202.3z"/>
		<path d="M335.6,197.9c-1.4,0.4-2.8,0.2-4.1-0.5c-1.3-0.7-2.1-1.8-2.5-3.2l-3.3-12c-0.4-1.4-0.2-2.8,0.5-4.1
			c0.7-1.3,1.8-2.1,3.2-2.5l12.4-3.4c1.4-0.4,2.8-0.2,4.1,0.5c1.3,0.7,2.1,1.8,2.5,3.2l3.3,12c0.4,1.4,0.2,2.8-0.5,4.1
			c-0.7,1.3-1.8,2.1-3.3,2.5L335.6,197.9z M335.1,193l10.8-2.9c0.6-0.2,1-0.4,1.1-0.5c0.1-0.2,0.1-0.6-0.1-1.2l-2.8-10.4
			c-0.2-0.6-0.4-1-0.5-1.1c-0.2-0.1-0.6-0.1-1.2,0.1l-10.8,2.9c-0.6,0.2-1,0.4-1.1,0.5c-0.1,0.2-0.1,0.6,0.1,1.2l2.8,10.4
			c0.2,0.6,0.4,1,0.5,1.1C334.1,193.2,334.5,193.2,335.1,193z"/>
		<path d="M356.5,192.5l-4.2-30.5l4.7-0.6l1,7.5l13.4-1.8c1.4-0.2,2.7,0.2,3.9,1.1c1.2,0.9,1.9,2.1,2.1,3.5l2.4,17.7l-4.7,0.6
			l-2.3-16.8c-0.1-0.7-0.2-1.1-0.4-1.2c-0.2-0.1-0.6-0.1-1.2-0.1l-11,1.5c-0.7,0.1-1.1,0.2-1.2,0.4c-0.1,0.2-0.2,0.6-0.1,1.2
			l2.3,16.8L356.5,192.5z"/>
		<path d="M387.6,189.1c-1.5,0-2.8-0.5-3.8-1.5c-1.1-1-1.6-2.3-1.6-3.8l-0.1-8.6l18.8-0.3l0-3c0-0.7-0.1-1.1-0.2-1.2
			c-0.1-0.1-0.6-0.2-1.2-0.2l-17.4,0.3l-0.1-4.8l18.2-0.3c1.5,0,2.8,0.5,3.8,1.5c1.1,1,1.6,2.3,1.6,3.8l0.3,17.8L387.6,189.1z
			 M388.3,184.3l12.6-0.2l-0.1-4.9l-14,0.2l0.1,3.4c0,0.7,0.1,1.1,0.2,1.2C387.2,184.3,387.7,184.4,388.3,184.3z"/>
		<path d="M408.1,189l0.6-5.4l18.2-11l-16.7-1.9l0.5-4.7l23.4,2.7l-0.6,5.4l-18.2,11L432,187l-0.5,4.7L408.1,189z"/>
		<path d="M439.1,193.4c-1.5-0.4-2.6-1.2-3.3-2.4c-0.8-1.3-1-2.6-0.6-4l2.1-8.4l18.3,4.5l0.7-2.9c0.2-0.6,0.2-1.1,0.1-1.2
			c-0.1-0.2-0.5-0.3-1.1-0.5l-16.9-4.1l1.1-4.6l17.7,4.3c1.5,0.4,2.6,1.2,3.3,2.4c0.8,1.3,1,2.6,0.6,4l-4.2,17.3L439.1,193.4z
			 M441,189l12.2,3l1.2-4.7l-13.6-3.3l-0.8,3.3c-0.2,0.6-0.2,1.1-0.1,1.2C440,188.6,440.4,188.8,441,189z"/>
		<path d="M459.4,198.7l6.1-16.8c0.5-1.4,1.4-2.4,2.8-3c1.4-0.6,2.7-0.7,4.1-0.2l12.1,4.4l-1.6,4.5l-11.3-4.2
			c-0.6-0.2-1-0.3-1.2-0.2c-0.2,0.1-0.4,0.4-0.6,1.1l-5.8,16L459.4,198.7z"/>
		<path d="M482.5,207.8c-1.3-0.7-2.2-1.7-2.7-3.1c-0.5-1.4-0.4-2.8,0.3-4.1l5.6-11.2c0.7-1.3,1.7-2.2,3.1-2.7
			c1.4-0.5,2.8-0.4,4.1,0.3l12,6.1l3.4-6.8l4.3,2.1l-13.8,27.5L482.5,207.8z M485.4,203.9l10,5c0.6,0.3,1,0.4,1.2,0.4
			c0.2-0.1,0.4-0.4,0.7-1l4.8-9.7c0.3-0.6,0.4-1,0.4-1.2s-0.4-0.4-1-0.7l-10-5c-0.6-0.3-1-0.4-1.2-0.4c-0.2,0.1-0.4,0.4-0.7,1
			l-4.8,9.7c-0.3,0.6-0.4,1-0.4,1.2C484.5,203.3,484.8,203.6,485.4,203.9z"/>
	</g>
	<g>
		<path d="M383.3,265.8c0.6-0.1,1-0.2,1.1-0.5c0.2-0.2,0.2-0.6,0.1-1.2l-2.3-13.9l-16,18.3L383.3,265.8z"/>
		<path d="M364.2,264.5l15.9-18.3l-17,2.8c-0.6,0.1-1,0.3-1.1,0.5c-0.2,0.2-0.2,0.6-0.1,1.2L364.2,264.5z"/>
		<path d="M459.2,281.1c0.3-0.1,0.5-0.4,0.8-0.9l5.8-12.8l-23.5,6.3l15.7,7.2C458.6,281.1,459,281.2,459.2,281.1z"/>
		<path d="M450.7,255.6c-0.5-0.2-0.9-0.3-1.2-0.2c-0.3,0.1-0.5,0.4-0.8,0.9l-5.8,12.7l23.4-6.3L450.7,255.6z"/>
		<path d="M576.4,356.6l-19,0c-4.1-16.9-10.8-32.8-19.6-47.2l13.2-13.3c-7.1-11-15.4-21.4-25-31c-9.4-9.4-19.6-17.6-30.3-24.5
			l-13.3,13.3c-14.4-8.8-30.3-15.5-47.2-19.7v-18.5c-12.8-2.8-26-4.3-39.6-4.3c-13.3,0-26.3,1.4-38.8,4.1v18.5
			c-17.1,4.1-33.1,10.8-47.7,19.6l-12.8-12.8c-11,7.1-21.4,15.4-31.1,25c-9.4,9.4-17.6,19.6-24.5,30.3l12.9,12.9
			c-9,14.7-15.9,31-20,48.3l-18,0.1c-2.8,12.8-4.2,26-4.2,39.6c0,13.3,1.5,26.3,4.2,38.8l18.2-0.1c4.2,17.1,11,33.1,20,47.7
			l-12.7,12.8c7.1,11,15.4,21.4,25.1,31c9.4,9.4,19.6,17.5,30.4,24.4l12.9-13c14.3,8.7,30.1,15.2,46.8,19.3l0,18.3
			c12.8,2.8,26,4.3,39.6,4.4c13.3,0,26.3-1.4,38.8-4l0-18.7c17-4.1,32.9-10.8,47.4-19.6l13.1,13.2c11-7,21.5-15.3,31.1-24.9
			c9.4-9.4,17.6-19.5,24.6-30.3l-13.3-13.4c8.9-14.6,15.7-30.6,19.8-47.7l18.8,0c2.8-12.8,4.3-26,4.2-39.6
			C580.5,382.1,579.1,369.1,576.4,356.6z M437.5,270.5l7.6-16.5c0.6-1.3,1.6-2.2,2.9-2.8s2.7-0.5,4,0.1l16.7,7.7
			c1.3,0.6,2.2,1.6,2.7,2.9c0.5,1.4,0.5,2.7-0.1,4l-7.6,16.5c-0.6,1.3-1.6,2.2-2.9,2.7c-1.4,0.5-2.7,0.5-4-0.1l-16.7-7.7
			c-1.3-0.6-2.2-1.6-2.7-3S436.9,271.8,437.5,270.5z M399.2,264.1l0.2-1.5l4.3,0.6l-0.1,1c-0.1,0.6,0,1,0.1,1.2s0.5,0.4,1.1,0.5
			l17.1,2.3c0.6,0.1,1,0,1.2-0.1c0.2-0.2,0.4-0.5,0.5-1.1l0.7-5.3c0.1-0.6,0-1-0.1-1.2s-0.5-0.4-1.1-0.5l-22.8-3l2.1-16.1l28.6,3.8
			l-0.6,4.3l-22.8-3c-0.6-0.1-1,0-1.2,0.1s-0.4,0.5-0.5,1.1l-0.6,4.6c-0.1,0.6,0,1,0.1,1.2s0.5,0.4,1.1,0.5l17.6,2.3
			c1.4,0.2,2.5,0.8,3.4,2c0.9,1.1,1.2,2.4,1,3.9l-0.9,6.5c-0.2,1.4-0.9,2.6-2,3.4c-1.2,0.9-2.4,1.2-3.8,1l-18.2-2.4
			c-1.4-0.2-2.6-0.9-3.4-2C399.4,266.8,399,265.5,399.2,264.1z M358.5,246.8c0.8-1.2,2-1.9,3.4-2.1l18.2-3c1.4-0.2,2.7,0.1,3.9,1
			c1.2,0.9,1.9,2,2.1,3.4l2.9,18c0.2,1.4-0.1,2.7-0.9,3.9c-0.8,1.2-2,1.9-3.4,2.2l-18.2,3c-1.4,0.2-2.7-0.1-3.9-1
			c-1.2-0.9-1.9-2-2.1-3.4l-2.9-18C357.3,249.3,357.6,248,358.5,246.8z M333.8,254.1l3.9-1.9l7.4,15.5l3.8-1.8l1.9,3.9l-3.8,1.8
			l3.1,6.6l-3.9,1.9l-3.1-6.6l-17.2,8.2l-1.9-3.9L333.8,254.1z M246.8,396.5c0-3.8,0.1-7.6,0.4-11.4l10,0.8
			c-0.3,3.5-0.4,7.1-0.4,10.7c0,0.6,0,1.2,0,1.7l-10,0.1C246.8,397.7,246.8,397.1,246.8,396.5z M271.5,458.7l-8.9,4.5
			c-5.9-11.8-10.2-24.4-12.8-37.3l9.8-2c0.9,4.3,1.9,8.5,3.2,12.6l8.3-2.8l3.3,9.5l-8.3,2.8C267.5,450.3,269.4,454.6,271.5,458.7z
			 M307.3,516.4c-10.8-8-20.5-17.4-28.8-28l7.9-6.2c7.7,9.9,16.8,18.7,26.9,26.2L307.3,516.4z M363.4,542c-9.4-2.1-18.6-5.1-27.4-9
			l-4.6-2l7.7-17.4l9.2,4l-3.6,8.2c6.8,2.7,13.8,4.9,21,6.4L363.4,542z M395.6,513.5c-64.6,0-117-52.4-117-117s52.4-117,117-117
			s117,52.4,117,117S460.2,513.5,395.6,513.5z M438,539.4l-2.8-9.6c5.5-1.6,10.9-3.6,16.1-5.9l4,9.2
			C449.7,535.6,443.9,537.7,438,539.4z M496.8,506.1c-6.2,5.7-12.9,10.9-20,15.5l-5.4-8.4c5.2-3.4,10.2-7.1,14.9-11.2l-5.9-6.4
			l7.4-6.8l12.7,13.8L496.8,506.1z M517.2,482.9l-8.1-5.8c3.5-4.9,6.8-10.2,9.6-15.5l8.8,4.7C524.5,472,521,477.6,517.2,482.9z
			 M537.9,441.5l-9.5-3c0.8-2.5,1.5-5.1,2.2-7.7l-8.2-1.8l2.2-9.8l8.1,1.8c0.5-3,1-5.9,1.3-8.9l9.9,1.1
			C542.8,422.9,540.8,432.4,537.9,441.5z M534.7,391.9c-0.1-3-0.3-6.1-0.6-9.1l10-1c0.3,3.2,0.5,6.5,0.6,9.7L534.7,391.9z"/>
		<polygon points="336.5,259.8 329.7,275.1 341.1,269.6 		"/>
	</g>
	<g>
		<path class="st0" d="M691.6,445.4c-1.6-20.5-6.3-40.6-14-59.6c-16-39.6-43.6-71.8-79.7-93.4c-4.4-2.6-8.8-5-13.3-7.2
			c0.4-5.2,0.6-10.5,0.6-15.8c0-43-13.3-83.7-38.5-117.8c-12.1-16.4-26.6-30.7-43-42.4c-16.7-11.9-35-20.9-54.4-26.7l-2.7,7.5
			c48.3,21,79.5,69.4,79.5,123.5c0,72.2-54.8,130.9-124.6,133.7l-3.8,0.2v3.8v9.8v3.4l3.4,0.5c15.1,2.4,26.5,16.2,26.5,32
			c0,4-0.7,7.9-2.1,11.7l-1.2,3.1l2.9,1.7l8.4,5l3.4,2l2.1-3.4c23.9-38.8,64.9-62,109.6-62c22.6,0,45,6.2,64.7,18
			c45.4,27.1,70.4,79.2,63.8,132.8l7.9,1.4C691.6,487.1,693.2,466.3,691.6,445.4z M682.9,506.4c6.6-53.4-17.8-108.1-65.8-136.8
			c-21.1-12.6-44.1-18.5-66.8-18.5c-44.4,0-87.7,22.9-113,63.9l-8.4-5c1.6-4.2,2.4-8.6,2.4-13.1c0-18.1-13-33.3-29.9-36v-9.8
			c71.4-2.9,128.4-63.4,128.5-137.7c0-57.2-33.8-106.3-81.9-127.2c76.9,23.1,133.1,96.3,133.1,183.1c0,6.2-0.3,12.2-0.8,18.2
			c5.2,2.5,10.4,5.2,15.5,8.3C668.7,339.4,702,426.2,682.9,506.4z"/>
		<path class="st0" d="M454.4,349.3c-0.1,0-0.3,0-0.4,0c-7.3,0.2-13,6.3-12.8,13.6c0.2,7.1,6.1,12.8,13.2,12.8c0.1,0,0.3,0,0.4,0
			c7.2-0.1,12.9-6,12.8-13.2c0-0.1,0-0.3,0-0.4C467.3,355,461.5,349.3,454.4,349.3z M454.7,371.7L454.7,371.7L454.7,371.7
			c-0.1,0-0.2,0-0.3,0c-5,0-9-3.9-9.2-8.9c-0.1-2.5,0.8-4.8,2.5-6.6c1.7-1.8,4-2.8,6.4-2.9c0.1,0,0.2,0,0.3,0c5,0,9,3.9,9.2,8.9
			c0,0.1,0,0.2,0,0.3v0l0,0C463.6,367.5,459.6,371.6,454.7,371.7z"/>
	</g>
	<g>
		<path class="st0" d="M344.5,86.3c-48.1,20.8-82,69.9-82,127.1c-0.1,74.2,56.8,134.7,128,137.8v9.8c-16.9,2.7-29.9,17.8-29.9,36
			c0,4.5,0.8,9,2.4,13.3l-8.2,4.9c-25.3-41.3-68.6-64.3-113.2-64.3c-22.7,0-45.6,5.9-66.6,18.5c-48.1,28.6-72.4,83.3-65.9,136.7
			c-19-80.2,14.4-167,87.3-210.3c5.2-3.1,10.4-5.9,15.7-8.4c-0.5-5.9-0.8-11.9-0.8-18C211.3,182.5,267.6,109.3,344.5,86.3
			 M340.6,375.6c0.1,0,0.3,0,0.4,0c7.3-0.2,13-6.3,12.8-13.6c-0.2-7.1-6.1-12.8-13.2-12.8c-0.1,0-0.3,0-0.4,0
			c-7.2,0.1-12.9,6-12.8,13.2c0,0.1,0,0.3,0,0.4C327.6,370,333.5,375.6,340.6,375.6 M343.4,82.5c-19.4,5.8-37.8,14.8-54.5,26.7
			c-16.5,11.7-31,26-43.1,42.4C233.6,168,224,186.4,217.5,206c-6.8,20.3-10.2,41.6-10.2,63.2c0,5.2,0.2,10.4,0.6,15.6
			c-4.6,2.2-9.1,4.7-13.6,7.3c-18.2,10.8-34.4,24.5-48.1,40.7c-13.2,15.6-23.9,33.3-31.7,52.5c-7.7,19-12.5,39-14.1,59.6
			c-1.7,20.8-0.1,41.6,4.7,61.9l7.9-1.4c-6.6-53.7,18.6-105.8,64-132.8c19.7-11.7,42-17.9,64.6-17.9c44.9,0,85.9,23.3,109.8,62.4
			l2.1,3.4l3.4-2l8.2-4.9l2.9-1.7l-1.2-3.1c-1.4-3.8-2.2-7.8-2.2-11.8c0-15.9,11.4-29.6,26.6-32.1l3.4-0.5V361v-9.8v-3.8l-3.8-0.2
			c-69.7-3-124.2-61.8-124.2-133.8c0-54.1,31.2-102.5,79.6-123.4L343.4,82.5L343.4,82.5z M340.6,371.6c-5,0-9-3.9-9.2-8.9
			c0-0.1,0-0.2,0-0.3v0l0,0c-0.1-4.9,3.9-9,8.9-9.1l0,0l0,0c0.1,0,0.2,0,0.3,0c5,0,9,3.9,9.2,8.9c0.1,5.1-3.8,9.3-8.9,9.4
			C340.8,371.6,340.7,371.6,340.6,371.6L340.6,371.6z"/>
	</g>
	<g>
		<path class="st0" d="M423.6,419.9l8.4,5c-33.3,65.2-11,146.3,51.4,183.5c21.1,12.6,44.1,18.5,66.8,18.5c29.1,0,57.6-9.8,81-28
			c-34.8,34.3-80.9,52.9-128,52.9c-31.4,0-63.2-8.3-92.3-25.6c-5.2-3.1-10.1-6.4-14.9-9.9c-4.7,3.4-9.6,6.7-14.7,9.7
			c-29.1,17.3-60.8,25.5-92.2,25.5c-47.2,0-93.4-18.6-128.2-52.9c23.4,18.3,52,28.1,81.1,28.1c22.7,0,45.6-5.9,66.6-18.4
			c62.4-37.1,84.7-118.1,51.7-183.2l8.3-5c1.9,2.4,4,4.6,6.4,6.4c6.3,4.8,13.7,7.1,21,7.1C406.4,433.5,416.7,428.8,423.6,419.9
			 M396.4,476.2c0.1,0,0.3,0,0.4,0c7.3-0.2,13-6.3,12.7-13.6c-0.2-7.1-6.1-12.8-13.2-12.8c-0.1,0-0.3,0-0.4,0l0,0
			c-7.2,0.1-12.9,6-12.8,13.2c0,0.1,0,0.3,0,0.4C383.5,470.6,389.4,476.2,396.4,476.2 M422.5,414.6l-2.2,2.8
			c-5.8,7.7-14.7,12.1-24.4,12.1c-6.8,0-13.2-2.2-18.6-6.3c-2.1-1.6-4.1-3.5-5.7-5.7l-2.2-2.8l-3.1,1.8l-8.3,5l-3.2,1.9l1.7,3.3
			c32.3,63.8,10.3,142-50.2,178c-19.7,11.7-42,17.9-64.6,17.9c-28.3,0-56.2-9.7-78.6-27.3l-5.3,6c17.6,17.4,38,30.9,60.8,40.2
			c22.5,9.2,46.1,13.9,70.3,13.9c32.9,0,65.5-9,94.2-26.1c4.3-2.6,8.6-5.3,12.7-8.2c4.1,2.9,8.5,5.8,12.9,8.4
			c28.7,17.1,61.4,26.2,94.4,26.2c24.1,0,47.7-4.7,70.2-13.9c22.7-9.3,43.1-22.8,60.7-40.1l-5.3-6c-22.4,17.5-50.3,27.2-78.5,27.2
			c-22.6,0-45-6.2-64.7-18c-52.3-31.2-75.8-93.9-60.2-151.5l1.4,0l-1.3-0.3c2.5-9,5.9-17.8,10.2-26.4l1.7-3.3l-3.2-1.9l-8.4-5
			L422.5,414.6L422.5,414.6z M396.4,472.2c-5,0-9-3.9-9.2-8.9c0-0.1,0-0.2,0-0.3v0l0,0c-0.1-4.9,3.9-9,8.9-9.1l0.7,0
			c4.8,0.2,8.7,4,8.8,8.9c0.2,5.1-3.8,9.3-8.9,9.5C396.6,472.2,396.5,472.2,396.4,472.2L396.4,472.2z"/>
	</g>
</g>
<g id="logo-biohazard">
	<path d="M672.4,383.9c-3.4-8.1-7.4-15.9-12-23.4c-3.2-5.4-6.7-10.6-10.5-15.7c-1.5-2-3.1-4-4.7-6c-1.6-2-3.2-3.9-4.9-5.8
		c-12.6-14.3-27.5-26.9-44.6-37.1c-1.3-0.8-2.6-1.5-3.8-2.2c-3.8-2.2-7.7-4.2-11.7-6c0.1-1.5,0.3-3,0.4-4.5c0.2-3,0.3-6.1,0.4-9.1
		c0-1.5,0.1-3.1,0.1-4.6c0-4.1-0.1-8.1-0.4-12.1c-0.2-2.7-0.4-5.3-0.6-8c-0.5-5.3-1.3-10.5-2.2-15.6c-0.5-2.6-1-5.1-1.6-7.7
		c-0.9-3.8-1.8-7.6-2.9-11.3c-0.7-2.5-1.5-4.9-2.3-7.4c-0.8-2.4-1.7-4.8-2.6-7.2c-1.3-3.6-2.8-7.1-4.3-10.6
		c-3.1-6.9-6.6-13.6-10.4-20.1c-4.5-7.5-9.5-14.7-14.9-21.5c-3.1-3.9-6.4-7.6-9.7-11.2c-1.7-1.8-3.4-3.6-5.2-5.3s-3.6-3.4-5.4-5.1
		c-1.8-1.7-3.7-3.3-5.6-4.9c-4.7-4-9.6-7.7-14.7-11.2c-8.2-5.6-16.8-10.5-25.8-14.7c-7.9-3.7-16-6.8-24.5-9.3
		c48.1,20.9,81.9,70,81.9,127.2c0,3.5-0.1,6.9-0.4,10.4c-0.2,2.3-0.4,4.5-0.7,6.8c-0.1,1.1-0.3,2.2-0.4,3.4
		c-0.2,1.3-0.4,2.6-0.6,3.8c-1.3,7.3-3.1,14.4-5.4,21.2c-1.6,4.7-3.5,9.4-5.5,13.8c-1.5,3.3-3.1,6.5-4.9,9.6c-1,1.9-2.1,3.7-3.2,5.5
		c-0.8,1.3-1.6,2.5-2.4,3.7c-1,1.5-2.1,3-3.2,4.5c-0.3,0.4-0.7,0.9-1,1.3c-1,1.3-2,2.6-3,3.9c-0.2,0.3-0.5,0.6-0.8,0.9
		c-0.9,1.1-1.8,2.1-2.7,3.2c-0.7,0.8-1.5,1.7-2.2,2.5c-1,1.1-2.1,2.2-3.1,3.3c0,0-0.1,0.1-0.1,0.1c-23,23.5-54.2,38.4-88.8,39.8v9.8
		c3.2,0.5,6.2,1.5,9,2.8c1.4,0.7,2.8,1.4,4.1,2.3c2.2,1.4,4.2,3,6,4.9c0.7,0.7,1.4,1.5,2.1,2.3c0.3,0.4,0.7,0.8,1,1.2
		c0.6,0.8,1.2,1.7,1.8,2.6c0.8,1.3,1.6,2.7,2.3,4.2c0.9,1.9,1.6,3.9,2.2,6c0.9,3.1,1.3,6.4,1.3,9.8c0,0.6,0,1.1,0,1.7
		c0,1.1-0.1,2.2-0.3,3.3c-0.1,0.6-0.2,1.1-0.3,1.6c-0.4,2.2-1,4.3-1.8,6.4l8.4,5c0.7-1.2,1.4-2.3,2.2-3.4c0.2-0.3,0.4-0.7,0.7-1
		c0.6-0.8,1.1-1.6,1.7-2.5c0.2-0.3,0.5-0.7,0.7-1c0.7-1,1.5-2,2.2-3c0.1-0.1,0.1-0.1,0.2-0.2c0.8-1.1,1.6-2.1,2.5-3.1
		c0.2-0.3,0.5-0.6,0.7-0.9c0.6-0.8,1.3-1.5,1.9-2.3c0.3-0.3,0.5-0.6,0.8-0.9c0.8-0.9,1.6-1.8,2.3-2.6c0.1-0.1,0.2-0.2,0.3-0.3
		c0.9-1,1.8-1.9,2.7-2.8c0.2-0.2,0.5-0.5,0.7-0.7c0.7-0.7,1.4-1.4,2.1-2.1c0.3-0.3,0.6-0.5,0.8-0.8c0.8-0.8,1.6-1.5,2.5-2.3
		c0.1-0.1,0.3-0.2,0.4-0.3c1-0.9,2-1.7,2.9-2.5c0.2-0.2,0.5-0.4,0.7-0.6c0.8-0.6,1.5-1.3,2.3-1.9c0.3-0.2,0.6-0.5,0.9-0.7
		c0.9-0.7,1.7-1.3,2.6-2c0.2-0.1,0.3-0.2,0.5-0.4c1-0.8,2.1-1.5,3.2-2.2c0.2-0.2,0.5-0.3,0.7-0.5c0.8-0.6,1.7-1.1,2.5-1.7
		c0.3-0.2,0.6-0.4,0.9-0.6c0.9-0.6,1.8-1.1,2.7-1.7c0.2-0.1,0.4-0.2,0.6-0.4c1.1-0.7,2.2-1.3,3.3-1.9c0.2-0.1,0.5-0.2,0.7-0.4
		c0.9-0.5,1.8-1,2.7-1.4c0.3-0.2,0.6-0.3,1-0.5c0.9-0.5,1.8-0.9,2.7-1.4c0.2-0.1,0.5-0.2,0.7-0.3c1.1-0.5,2.3-1.1,3.5-1.6
		c0.2-0.1,0.4-0.2,0.6-0.3c1-0.4,1.9-0.8,2.9-1.2c0.3-0.1,0.7-0.3,1-0.4c0.9-0.4,1.9-0.7,2.8-1.1c0.3-0.1,0.5-0.2,0.8-0.3
		c1.2-0.4,2.4-0.8,3.6-1.2c0.2-0.1,0.4-0.1,0.6-0.2c1-0.3,2-0.6,3-0.9c0.4-0.1,0.7-0.2,1.1-0.3c0.9-0.3,1.9-0.5,2.8-0.8
		c0.3-0.1,0.6-0.2,0.9-0.2c1.2-0.3,2.4-0.6,3.7-0.9c0.2,0,0.4-0.1,0.5-0.1c1-0.2,2.1-0.5,3.1-0.7c0.4-0.1,0.7-0.1,1.1-0.2
		c0.9-0.2,1.9-0.3,2.8-0.5c0.3-0.1,0.7-0.1,1-0.2c1.2-0.2,2.5-0.4,3.7-0.5c0.2,0,0.3,0,0.5-0.1c1.1-0.1,2.2-0.3,3.3-0.4
		c0.4,0,0.8-0.1,1.1-0.1c0.9-0.1,1.8-0.2,2.8-0.2c0.4,0,0.7-0.1,1.1-0.1c1.2-0.1,2.5-0.1,3.7-0.2c0.1,0,0.2,0,0.3,0
		c1.2,0,2.3-0.1,3.5-0.1c0.1,0,0.3,0,0.4,0c0.2,0,0.4,0,0.7,0c1,0,1.9,0,2.9,0c0.4,0,0.7,0,1.1,0c1.3,0,2.5,0.1,3.8,0.2
		c0.2,0,0.3,0,0.5,0c1.1,0.1,2.2,0.2,3.3,0.3c0.4,0,0.8,0.1,1.2,0.1c1,0.1,1.9,0.2,2.9,0.3c0.3,0,0.7,0.1,1,0.1
		c1.3,0.2,2.5,0.4,3.8,0.6c0.3,0,0.5,0.1,0.8,0.1c1,0.2,2,0.4,3.1,0.6c0.4,0.1,0.8,0.2,1.2,0.2c1,0.2,1.9,0.4,2.9,0.6
		c0.3,0.1,0.6,0.1,0.9,0.2c1.2,0.3,2.5,0.6,3.7,1c0.3,0.1,0.6,0.2,0.9,0.3c1,0.3,1.9,0.5,2.9,0.8c0.4,0.1,0.8,0.2,1.2,0.4
		c1,0.3,2,0.6,3,1c0.3,0.1,0.5,0.2,0.8,0.3c1.2,0.4,2.5,0.9,3.7,1.3c0.3,0.1,0.7,0.3,1,0.4c0.9,0.4,1.9,0.7,2.8,1.1
		c0.4,0.2,0.8,0.3,1.1,0.5c1.1,0.5,2.1,0.9,3.2,1.4c0.2,0.1,0.3,0.1,0.5,0.2c1.2,0.6,2.4,1.2,3.6,1.8c0.3,0.2,0.7,0.3,1,0.5
		c0.9,0.5,1.8,0.9,2.7,1.4c0.4,0.2,0.7,0.4,1.1,0.6c1.2,0.7,2.4,1.3,3.6,2c48,28.6,72.3,83.4,65.8,136.8
		C692.7,465,688.7,421.9,672.4,383.9z M467.6,362.5c0,2.7-0.7,5.2-2.1,7.3c-0.2,0.3-0.5,0.7-0.7,1c-0.5,0.6-1.1,1.2-1.7,1.8
		c-1.3,1.1-2.7,1.9-4.4,2.4c-0.8,0.3-1.7,0.5-2.5,0.6c-0.4,0.1-0.9,0.1-1.3,0.1c-0.1,0-0.3,0-0.4,0c-0.2,0-0.3,0-0.5,0
		c-0.2,0-0.4,0-0.6,0c-0.2,0-0.5-0.1-0.7-0.1c-0.2,0-0.4-0.1-0.6-0.1c-0.2,0-0.4-0.1-0.7-0.1c-0.2,0-0.4-0.1-0.6-0.2
		c-0.2-0.1-0.4-0.1-0.6-0.2c-0.2-0.1-0.4-0.1-0.6-0.2c-0.2-0.1-0.4-0.2-0.6-0.3c-0.2-0.1-0.4-0.2-0.5-0.3c-0.2-0.1-0.4-0.2-0.6-0.3
		c-0.2-0.1-0.3-0.2-0.5-0.3c-0.2-0.1-0.4-0.3-0.5-0.4c-0.2-0.1-0.3-0.2-0.5-0.3c-0.2-0.1-0.3-0.3-0.5-0.4c-0.1-0.1-0.3-0.3-0.4-0.4
		c-0.2-0.2-0.3-0.3-0.5-0.5c-0.1-0.1-0.3-0.3-0.4-0.4c-0.1-0.2-0.3-0.4-0.4-0.5c-0.1-0.2-0.2-0.3-0.4-0.5c-0.1-0.2-0.3-0.4-0.4-0.6
		c-0.1-0.2-0.2-0.3-0.3-0.5c-0.1-0.2-0.2-0.4-0.3-0.6c-0.1-0.2-0.2-0.3-0.3-0.5c-0.1-0.2-0.2-0.5-0.3-0.7c-0.1-0.2-0.1-0.3-0.2-0.5
		c-0.1-0.2-0.1-0.5-0.2-0.7c0-0.2-0.1-0.3-0.1-0.5c-0.1-0.3-0.1-0.6-0.2-0.9c0-0.1-0.1-0.3-0.1-0.4c-0.1-0.4-0.1-0.9-0.1-1.3
		c-0.2-7.3,5.5-13.3,12.8-13.6c0.1,0,0.3,0,0.4,0c0.2,0,0.3,0,0.5,0c0.2,0,0.4,0,0.6,0c0.2,0,0.5,0.1,0.7,0.1c0.2,0,0.4,0.1,0.6,0.1
		c0.2,0,0.4,0.1,0.7,0.1c0.2,0,0.4,0.1,0.6,0.1c0.2,0.1,0.4,0.1,0.6,0.2c0.2,0.1,0.4,0.1,0.6,0.2c0.2,0.1,0.4,0.2,0.6,0.3
		c0.2,0.1,0.4,0.2,0.5,0.3c0.2,0.1,0.4,0.2,0.6,0.3c0.2,0.1,0.3,0.2,0.5,0.3c0.2,0.1,0.4,0.3,0.5,0.4c0.2,0.1,0.3,0.2,0.5,0.3
		c0.2,0.1,0.3,0.3,0.5,0.4c0.1,0.1,0.3,0.3,0.4,0.4c0.2,0.2,0.3,0.3,0.5,0.5c0.1,0.1,0.3,0.3,0.4,0.4c0.1,0.2,0.3,0.4,0.4,0.5
		c0.1,0.2,0.2,0.3,0.4,0.5c0.1,0.2,0.3,0.4,0.4,0.6c0.1,0.2,0.2,0.3,0.3,0.5c0.1,0.2,0.2,0.4,0.3,0.6c0.1,0.2,0.2,0.3,0.3,0.5
		c0.1,0.2,0.2,0.5,0.3,0.7c0.1,0.2,0.1,0.3,0.2,0.5c0.1,0.2,0.1,0.5,0.2,0.7c0,0.2,0.1,0.3,0.1,0.5c0.1,0.3,0.1,0.6,0.2,0.9
		c0,0.1,0.1,0.3,0.1,0.4c0.1,0.4,0.1,0.9,0.1,1.3c0,0.1,0,0.1,0,0.2C467.6,362.4,467.6,362.5,467.6,362.5L467.6,362.5L467.6,362.5z
		 M496.5,347.2c-0.1,0.1-0.2,0.2-0.3,0.2c-0.1,0.1-0.2,0.2-0.3,0.3c-0.1,0.1-0.2,0.1-0.3,0.2c-0.1,0.1-0.2,0.2-0.3,0.2
		c-0.1,0.1-0.2,0.1-0.3,0.2c-0.1,0.1-0.2,0.1-0.3,0.2c-0.1,0.1-0.2,0.1-0.3,0.2c-0.1,0.1-0.2,0.1-0.4,0.2c-0.1,0-0.2,0.1-0.3,0.1
		c-0.1,0-0.3,0.1-0.4,0.1c-0.1,0-0.2,0.1-0.4,0.1c-0.1,0-0.3,0.1-0.4,0.1c-0.1,0-0.3,0-0.4,0.1c-0.1,0-0.3,0-0.4,0.1
		c-0.1,0-0.3,0-0.4,0c-0.1,0-0.2,0-0.3,0c-0.1,0-0.1,0-0.2,0c-1,0-2-0.3-2.9-0.6c-0.2-0.1-0.4-0.2-0.6-0.3c-0.8-0.4-1.5-0.9-2.1-1.6
		c-0.2-0.2-0.3-0.4-0.5-0.6c-0.2-0.2-0.3-0.4-0.4-0.6c-0.8-1.3-1.3-2.8-1.3-4.5l0,0v0c0,0,0,0,0,0c0-0.3,0-0.5,0.1-0.8
		c0-0.1,0-0.2,0.1-0.3c0-0.2,0-0.3,0.1-0.5c0-0.1,0.1-0.2,0.1-0.3c0-0.1,0.1-0.3,0.1-0.4c0-0.1,0.1-0.2,0.1-0.3
		c0.1-0.1,0.1-0.3,0.2-0.4c0-0.1,0.1-0.2,0.2-0.3c0.1-0.1,0.1-0.2,0.2-0.4c0.1-0.1,0.1-0.2,0.2-0.3c0.1-0.1,0.1-0.2,0.2-0.3
		c0.1-0.1,0.2-0.2,0.2-0.3c0.1-0.1,0.1-0.2,0.2-0.3c0.1-0.1,0.2-0.2,0.3-0.3c0.1-0.1,0.2-0.2,0.3-0.3c0.1-0.1,0.2-0.2,0.3-0.2
		c0.1-0.1,0.2-0.2,0.3-0.3c0.1-0.1,0.2-0.1,0.3-0.2c0.1-0.1,0.2-0.2,0.3-0.2c0.1-0.1,0.2-0.1,0.3-0.2c0.1-0.1,0.2-0.1,0.3-0.2
		c0.1-0.1,0.2-0.1,0.3-0.2c0.1-0.1,0.2-0.1,0.4-0.2c0.1,0,0.2-0.1,0.3-0.1c0.1,0,0.3-0.1,0.4-0.1c0.1,0,0.2-0.1,0.4-0.1
		c0.1,0,0.3-0.1,0.4-0.1c0.1,0,0.2,0,0.4-0.1c0.1,0,0.3,0,0.4-0.1c0.1,0,0.3,0,0.4,0c0.1,0,0.3,0,0.4,0c0,0,0,0,0,0
		c1.1,0,2.2,0.3,3.1,0.7c1.4,0.6,2.7,1.7,3.5,3c0.8,1.3,1.3,2.9,1.3,4.5h0c0,0.3,0,0.5-0.1,0.8c0,0.1,0,0.2,0,0.3
		c0,0.2-0.1,0.4-0.1,0.5c0,0.1-0.1,0.2-0.1,0.3c0,0.1-0.1,0.3-0.1,0.4c0,0.1-0.1,0.2-0.1,0.3c-0.1,0.1-0.1,0.3-0.2,0.4
		c0,0.1-0.1,0.2-0.2,0.3c-0.1,0.1-0.1,0.3-0.2,0.4c-0.1,0.1-0.1,0.2-0.2,0.3c-0.1,0.1-0.1,0.2-0.2,0.3c-0.1,0.1-0.1,0.2-0.2,0.3
		c-0.1,0.1-0.2,0.2-0.2,0.3c-0.1,0.1-0.2,0.2-0.2,0.3C496.7,347,496.6,347.1,496.5,347.2z"/>
	<path d="M390.5,351.1c-20-0.9-38.9-6.3-55.7-15.2c-0.9-0.5-1.9-1-2.8-1.5c-6.4-3.6-12.6-7.8-18.3-12.5c-0.8-0.7-1.6-1.3-2.4-2
		c-1.6-1.4-3.2-2.8-4.7-4.2c-3.1-2.9-6.1-5.9-8.9-9.1c-4.9-5.5-9.4-11.5-13.4-17.8c-0.6-0.9-1.1-1.8-1.7-2.7
		c-2.2-3.7-4.3-7.5-6.1-11.3c-1.4-2.9-2.7-5.9-3.9-8.9c-0.8-2-1.6-4.1-2.3-6.1c-2.5-7.2-4.4-14.7-5.7-22.5c-0.4-2.2-0.7-4.4-1-6.7
		c-0.7-5.6-1-11.3-1-17.1c0-5.4,0.3-10.7,0.9-15.9c0.4-3.5,0.9-6.9,1.5-10.3c0.9-5.1,2.2-10.1,3.6-14.9s3.2-9.6,5.2-14.2
		c1.3-3.1,2.7-6.1,4.2-9c1.5-3,3.1-5.8,4.9-8.7s3.5-5.6,5.4-8.3c2.9-4,5.9-7.9,9.2-11.5c3.3-3.7,6.7-7.2,10.3-10.5
		c10.8-9.9,23.3-18,36.8-23.8c-8.4,2.5-16.6,5.6-24.5,9.3c-2.3,1-4.5,2.1-6.7,3.3c-4.4,2.3-8.7,4.7-12.9,7.3c-2.1,1.3-4.2,2.7-6.2,4
		c-2,1.4-4.1,2.8-6,4.3c-2,1.5-3.9,3-5.9,4.5s-3.8,3.1-5.7,4.8c-4.2,3.7-8.2,7.5-12.1,11.6c-1.3,1.3-2.5,2.7-3.8,4
		c-0.8,0.9-1.7,1.8-2.5,2.8c-3.3,3.7-6.4,7.6-9.3,11.6c-0.7,1-1.5,2-2.2,3c-1.4,2-2.8,4.1-4.2,6.2c-2,3.1-4,6.3-5.9,9.6
		c-3.1,5.4-6,11.1-8.6,16.8c-0.5,1.2-1,2.3-1.5,3.5c-4,9.3-7.2,19.1-9.7,29.1c-0.6,2.5-1.2,5-1.7,7.6c-0.5,2.6-1,5.1-1.4,7.7
		c-1.7,10.4-2.6,21-2.6,31.8c0,3,0.1,6,0.2,9c0.1,3,0.3,6,0.6,9c-4.8,2.3-9.6,4.8-14.3,7.5c-0.5,0.3-1,0.5-1.4,0.8
		c-15.9,9.5-30,21-42,34.1c-0.9,0.9-1.7,1.9-2.5,2.8c-5,5.7-9.7,11.7-14,17.9c-2.1,3.1-4.2,6.3-6.1,9.5c-1.3,2.2-2.5,4.3-3.8,6.5
		c-23,41.8-30.1,91.7-18.8,139.4c-3.5-28.4,1.8-57.1,14.7-82.1c6.1-11.8,13.8-22.7,23.2-32.4c1.2-1.2,2.4-2.4,3.6-3.6
		c7.3-7,15.5-13.3,24.5-18.7c1.2-0.7,2.4-1.4,3.6-2c0.3-0.2,0.7-0.4,1-0.6c0.9-0.5,1.8-1,2.7-1.4c0.3-0.2,0.7-0.3,1-0.5
		c1.2-0.6,2.4-1.2,3.6-1.8c0.1,0,0.2-0.1,0.3-0.1c1.1-0.5,2.3-1,3.4-1.5c0.4-0.2,0.7-0.3,1.1-0.4c0.9-0.4,1.9-0.8,2.9-1.2
		c0.3-0.1,0.6-0.3,0.9-0.4c1.2-0.5,2.5-0.9,3.7-1.4c0.2-0.1,0.3-0.1,0.5-0.2c1.1-0.4,2.2-0.7,3.3-1.1c0.4-0.1,0.7-0.2,1.1-0.3
		c1-0.3,2-0.6,3-0.9c0.3-0.1,0.6-0.2,0.9-0.2c1.3-0.3,2.5-0.7,3.8-1c0.2-0.1,0.4-0.1,0.7-0.2c1.1-0.2,2.1-0.5,3.2-0.7
		c0.4-0.1,0.7-0.1,1.1-0.2c1-0.2,2-0.4,3.1-0.6c0.3,0,0.5-0.1,0.8-0.1c1.3-0.2,2.5-0.4,3.8-0.6c0.3,0,0.6-0.1,0.8-0.1
		c1-0.1,2-0.2,3-0.4c0.4,0,0.8-0.1,1.1-0.1c1-0.1,2.1-0.2,3.1-0.3c0.2,0,0.5,0,0.7-0.1c1.3-0.1,2.5-0.1,3.8-0.2c0.3,0,0.6,0,1,0
		c1,0,2,0,2.9,0c0.2,0,0.4,0,0.6,0c0.2,0,0.4,0,0.5,0c1,0,2.1,0,3.1,0c0.2,0,0.5,0,0.7,0c1.2,0,2.5,0.1,3.7,0.2c0.3,0,0.7,0,1,0.1
		c0.9,0.1,1.9,0.1,2.8,0.2c0.4,0,0.8,0.1,1.2,0.1c1,0.1,2,0.2,3,0.3c0.3,0,0.5,0.1,0.8,0.1c1.2,0.2,2.5,0.3,3.7,0.5
		c0.3,0.1,0.7,0.1,1,0.2c0.9,0.2,1.8,0.3,2.8,0.5c0.4,0.1,0.8,0.2,1.2,0.2c0.9,0.2,1.9,0.4,2.8,0.6c0.3,0.1,0.6,0.1,0.9,0.2
		c1.2,0.3,2.4,0.6,3.6,0.9c0.3,0.1,0.6,0.2,1,0.3c0.9,0.2,1.8,0.5,2.7,0.7c0.4,0.1,0.8,0.2,1.2,0.4c0.9,0.3,1.8,0.5,2.6,0.8
		c0.3,0.1,0.6,0.2,1,0.3c1.2,0.4,2.3,0.8,3.5,1.2c0.3,0.1,0.6,0.2,0.9,0.4c0.9,0.3,1.7,0.7,2.6,1c0.4,0.2,0.8,0.3,1.2,0.5
		c0.8,0.3,1.7,0.7,2.5,1c0.3,0.1,0.7,0.3,1,0.4c1.1,0.5,2.2,1,3.3,1.5c0.3,0.1,0.6,0.3,0.9,0.4c0.8,0.4,1.7,0.8,2.5,1.3
		c0.4,0.2,0.8,0.4,1.2,0.6c0.8,0.4,1.6,0.8,2.4,1.3c0.3,0.2,0.7,0.4,1,0.6c1.1,0.6,2.1,1.2,3.2,1.8c0.3,0.2,0.5,0.3,0.8,0.5
		c0.8,0.5,1.6,1,2.5,1.5c0.4,0.2,0.7,0.5,1.1,0.7c0.7,0.5,1.5,1,2.2,1.5c0.3,0.2,0.7,0.4,1,0.7c1,0.7,2,1.4,3,2.2
		c0.2,0.2,0.4,0.3,0.7,0.5c0.8,0.6,1.6,1.2,2.4,1.8c0.3,0.3,0.7,0.5,1,0.8c0.7,0.6,1.4,1.1,2.1,1.7c0.3,0.3,0.6,0.5,0.9,0.8
		c1,0.8,1.9,1.6,2.9,2.5c0.2,0.1,0.3,0.3,0.5,0.5c0.8,0.7,1.6,1.4,2.4,2.2c0.3,0.3,0.6,0.6,0.9,0.9c0.7,0.6,1.3,1.3,2,2
		c0.3,0.3,0.6,0.6,0.8,0.8c0.9,0.9,1.8,1.9,2.7,2.8c0.1,0.1,0.2,0.2,0.3,0.4c0.8,0.9,1.5,1.7,2.3,2.6c0.3,0.3,0.5,0.6,0.8,0.9
		c0.6,0.7,1.2,1.5,1.8,2.2c0.3,0.3,0.5,0.6,0.8,0.9c0.8,1,1.6,2.1,2.4,3.1c0.1,0.1,0.1,0.1,0.2,0.2c0.8,1,1.5,2,2.2,3
		c0.2,0.3,0.5,0.7,0.7,1c0.6,0.8,1.1,1.6,1.7,2.5c0.2,0.3,0.4,0.7,0.7,1c0.7,1.1,1.5,2.3,2.2,3.4l8.2-4.9c-1.6-4.2-2.4-8.7-2.4-13.3
		c0-1.1,0.1-2.3,0.2-3.4c0.1-1.7,0.4-3.3,0.8-4.9c0.5-2.1,1.1-4.2,2-6.1c1.4-3.4,3.4-6.6,5.7-9.4c0.3-0.4,0.7-0.8,1-1.2
		c5.3-5.8,12.3-9.8,20.3-11V351.1z M311.4,343.7c-0.1,0.3-0.2,0.5-0.3,0.8c-0.2,0.5-0.4,1-0.7,1.4c-0.3,0.4-0.6,0.9-1,1.2
		c-0.7,0.8-1.6,1.4-2.6,1.8c-1,0.4-2,0.7-3.2,0.7c-0.1,0-0.1,0-0.2,0c-0.1,0-0.2,0-0.3,0c-0.1,0-0.3,0-0.4,0c-0.1,0-0.3,0-0.4-0.1
		c-0.1,0-0.3,0-0.4-0.1c-0.1,0-0.3-0.1-0.4-0.1c-0.1,0-0.2-0.1-0.4-0.1c-0.1,0-0.3-0.1-0.4-0.1c-0.1,0-0.2-0.1-0.4-0.1
		c-0.1-0.1-0.3-0.1-0.4-0.2c-0.1-0.1-0.2-0.1-0.3-0.2c-0.1-0.1-0.2-0.1-0.4-0.2c-0.1-0.1-0.2-0.1-0.3-0.2c-0.1-0.1-0.2-0.2-0.3-0.2
		c-0.1-0.1-0.2-0.1-0.3-0.2c-0.1-0.1-0.2-0.2-0.3-0.3c-0.1-0.1-0.2-0.2-0.3-0.2c-0.1-0.1-0.2-0.2-0.3-0.3c-0.1-0.1-0.2-0.2-0.2-0.3
		c-0.1-0.1-0.2-0.2-0.3-0.3c-0.1-0.1-0.1-0.2-0.2-0.3c-0.1-0.1-0.2-0.2-0.2-0.4c-0.1-0.1-0.1-0.2-0.2-0.3c-0.1-0.1-0.1-0.3-0.2-0.4
		c-0.1-0.1-0.1-0.2-0.2-0.3c-0.1-0.1-0.1-0.3-0.2-0.4c0-0.1-0.1-0.2-0.1-0.3c-0.1-0.2-0.1-0.3-0.1-0.5c0-0.1-0.1-0.2-0.1-0.3
		c0-0.2-0.1-0.3-0.1-0.5c0-0.1,0-0.2,0-0.3c0-0.2,0-0.5-0.1-0.8c0,0,0-0.1,0-0.1c0-0.1,0-0.1,0-0.2c0-1.4,0.3-2.7,0.9-3.9
		c0.1-0.2,0.3-0.5,0.4-0.7c0.3-0.4,0.6-0.8,1-1.2c0.3-0.3,0.5-0.5,0.8-0.7c0.3-0.2,0.7-0.5,1-0.7c0.7-0.4,1.4-0.7,2.2-0.8
		c0.5-0.1,1.1-0.2,1.6-0.2c0,0,0,0,0,0c0,0,0,0,0,0c0,0,0,0,0,0h0h0c0.1,0,0.1,0,0.2,0c0.1,0,0.2,0,0.3,0c0.1,0,0.3,0,0.4,0
		c0.1,0,0.3,0,0.4,0.1c0.1,0,0.3,0,0.4,0.1c0.1,0,0.3,0.1,0.4,0.1c0.1,0,0.2,0.1,0.4,0.1c0.1,0,0.3,0.1,0.4,0.1
		c0.1,0,0.2,0.1,0.4,0.1c0.1,0.1,0.3,0.1,0.4,0.2c0.1,0.1,0.2,0.1,0.3,0.2c0.1,0.1,0.2,0.1,0.4,0.2c0.1,0.1,0.2,0.1,0.3,0.2
		c0.1,0.1,0.2,0.2,0.3,0.2c0.1,0.1,0.2,0.1,0.3,0.2c0.1,0.1,0.2,0.2,0.3,0.3c0.1,0.1,0.2,0.2,0.3,0.2c0.1,0.1,0.2,0.2,0.3,0.3
		c0.1,0.1,0.2,0.2,0.2,0.3c0.1,0.1,0.2,0.2,0.3,0.3c0.1,0.1,0.1,0.2,0.2,0.3c0.1,0.1,0.2,0.2,0.2,0.4c0.1,0.1,0.1,0.2,0.2,0.3
		c0.1,0.1,0.1,0.3,0.2,0.4c0.1,0.1,0.1,0.2,0.2,0.3c0.1,0.1,0.1,0.3,0.2,0.4c0,0.1,0.1,0.2,0.1,0.3c0.1,0.2,0.1,0.3,0.1,0.5
		c0,0.1,0.1,0.2,0.1,0.3c0,0.2,0.1,0.3,0.1,0.5c0,0.1,0,0.2,0,0.3c0,0.2,0,0.5,0.1,0.8c0,0,0,0.1,0,0.1
		C311.7,342.1,311.6,342.9,311.4,343.7z M350.2,371.5c-0.3,0.4-0.7,0.7-1.1,1c-0.6,0.5-1.2,0.9-1.9,1.3c-0.7,0.4-1.5,0.8-2.3,1.1
		c-1.2,0.4-2.5,0.7-3.9,0.7c-0.1,0-0.3,0-0.4,0c-0.2,0-0.3,0-0.5,0c-0.2,0-0.4,0-0.6,0c-0.2,0-0.5-0.1-0.7-0.1
		c-0.2,0-0.4-0.1-0.6-0.1c-0.2,0-0.4-0.1-0.7-0.1c-0.2,0-0.4-0.1-0.6-0.2c-0.2-0.1-0.4-0.1-0.6-0.2c-0.2-0.1-0.4-0.1-0.6-0.2
		c-0.2-0.1-0.4-0.2-0.6-0.3c-0.2-0.1-0.4-0.2-0.5-0.3c-0.2-0.1-0.4-0.2-0.6-0.3c-0.2-0.1-0.3-0.2-0.5-0.3c-0.2-0.1-0.4-0.3-0.5-0.4
		c-0.2-0.1-0.3-0.2-0.5-0.3c-0.2-0.1-0.3-0.3-0.5-0.4c-0.1-0.1-0.3-0.3-0.4-0.4c-0.2-0.2-0.3-0.3-0.5-0.5c-0.1-0.1-0.3-0.3-0.4-0.4
		c-0.1-0.2-0.3-0.4-0.4-0.5c-0.1-0.2-0.2-0.3-0.4-0.5c-0.1-0.2-0.3-0.4-0.4-0.6c-0.1-0.2-0.2-0.3-0.3-0.5c-0.1-0.2-0.2-0.4-0.3-0.6
		c-0.1-0.2-0.2-0.3-0.3-0.5c-0.1-0.2-0.2-0.5-0.3-0.7c-0.1-0.2-0.1-0.3-0.2-0.5c-0.1-0.2-0.1-0.5-0.2-0.7c0-0.2-0.1-0.3-0.1-0.5
		c-0.1-0.3-0.1-0.6-0.2-0.9c0-0.1-0.1-0.3-0.1-0.4c-0.1-0.4-0.1-0.9-0.1-1.3c0-0.1,0-0.3,0-0.4c0-0.4,0-0.9,0-1.3
		c0.2-1.7,0.7-3.4,1.4-4.9c0.8-1.5,1.8-2.8,3.1-3.9c0.6-0.5,1.3-1,2-1.4c0.4-0.2,0.7-0.4,1.1-0.6c1.5-0.7,3.2-1.1,5-1.1
		c0.1,0,0.3,0,0.4,0c0.2,0,0.3,0,0.5,0c0.2,0,0.4,0,0.6,0c0.2,0,0.5,0.1,0.7,0.1c0.2,0,0.4,0.1,0.6,0.1c0.2,0,0.4,0.1,0.7,0.1
		c0.2,0,0.4,0.1,0.6,0.2c0.2,0.1,0.4,0.1,0.6,0.2c0.2,0.1,0.4,0.1,0.6,0.2c0.2,0.1,0.4,0.2,0.6,0.3c0.2,0.1,0.4,0.2,0.5,0.3
		c0.2,0.1,0.4,0.2,0.6,0.3c0.2,0.1,0.3,0.2,0.5,0.3c0.2,0.1,0.4,0.3,0.5,0.4c0.2,0.1,0.3,0.2,0.5,0.3c0.2,0.1,0.3,0.3,0.5,0.4
		c0.1,0.1,0.3,0.3,0.4,0.4c0.2,0.2,0.3,0.3,0.5,0.5c0.1,0.1,0.3,0.3,0.4,0.4c0.1,0.2,0.3,0.4,0.4,0.5c0.1,0.2,0.2,0.3,0.4,0.5
		c0.1,0.2,0.3,0.4,0.4,0.6c0.1,0.2,0.2,0.3,0.3,0.5c0.1,0.2,0.2,0.4,0.3,0.6c0.1,0.2,0.2,0.3,0.3,0.5c0.1,0.2,0.2,0.5,0.3,0.7
		c0.1,0.2,0.1,0.3,0.2,0.5c0.1,0.2,0.1,0.5,0.2,0.8c0,0.2,0.1,0.3,0.1,0.5c0.1,0.3,0.1,0.6,0.2,0.9c0,0.1,0.1,0.3,0.1,0.4
		c0.1,0.4,0.1,0.9,0.1,1.3C353.9,365.7,352.5,369,350.2,371.5z"/>
	<path d="M627,601.9c-1.2,0.8-2.3,1.7-3.5,2.5c-0.2,0.1-0.4,0.3-0.6,0.4c-1.2,0.8-2.4,1.6-3.6,2.3c-0.2,0.1-0.4,0.3-0.6,0.4
		c-1.2,0.8-2.5,1.5-3.7,2.2c-0.1,0.1-0.2,0.1-0.4,0.2c-1.3,0.7-2.5,1.4-3.8,2.1c-0.1,0.1-0.2,0.1-0.3,0.2c-1.3,0.7-2.6,1.3-3.9,1.9
		c-0.2,0.1-0.4,0.2-0.6,0.3c-1.3,0.6-2.6,1.2-3.8,1.7c-0.2,0.1-0.5,0.2-0.7,0.3c-1.3,0.6-2.6,1.1-3.9,1.6c-0.2,0.1-0.4,0.1-0.6,0.2
		c-1.4,0.5-2.8,1-4.1,1.5c0,0-0.1,0-0.1,0c-1.4,0.5-2.8,0.9-4.2,1.4c-0.2,0.1-0.3,0.1-0.5,0.2c-1.4,0.4-2.7,0.8-4.1,1.2
		c-0.2,0.1-0.5,0.1-0.7,0.2c-1.3,0.4-2.7,0.7-4.1,1c-0.2,0.1-0.5,0.1-0.7,0.2c-1.4,0.3-2.8,0.6-4.2,0.9c-0.2,0-0.3,0.1-0.5,0.1
		c-1.4,0.3-2.8,0.5-4.3,0.7c-0.1,0-0.2,0-0.2,0c-1.4,0.2-2.9,0.4-4.3,0.6c-0.2,0-0.4,0.1-0.6,0.1c-1.4,0.2-2.8,0.3-4.2,0.4
		c-0.3,0-0.5,0-0.8,0.1c-1.4,0.1-2.8,0.2-4.2,0.2c-0.2,0-0.4,0-0.7,0c-1.4,0-2.8,0.1-4.3,0.1c0,0-0.1,0-0.1,0c-0.3,0-0.5,0-0.8,0
		c-1.3,0-2.5,0-3.8-0.1c-0.5,0-1.1-0.1-1.6-0.1c-1,0-2-0.1-3-0.2c-0.6,0-1.2-0.1-1.8-0.1c-0.9-0.1-1.9-0.2-2.8-0.3
		c-0.6-0.1-1.2-0.1-1.9-0.2c-0.9-0.1-1.8-0.2-2.8-0.4c-0.6-0.1-1.2-0.2-1.8-0.3c-0.9-0.2-1.9-0.3-2.8-0.5c-0.6-0.1-1.2-0.2-1.7-0.3
		c-1.1-0.2-2.1-0.4-3.2-0.7c-0.5-0.1-0.9-0.2-1.4-0.3c-1.5-0.4-3-0.7-4.5-1.1c-0.2,0-0.3-0.1-0.5-0.1c-1.3-0.4-2.7-0.8-4-1.2
		c-0.5-0.2-1-0.3-1.5-0.5c-1-0.3-2-0.7-3-1c-0.6-0.2-1.2-0.4-1.7-0.6c-0.9-0.3-1.8-0.7-2.7-1c-0.6-0.2-1.2-0.5-1.8-0.7
		c-0.9-0.4-1.8-0.7-2.7-1.1c-0.6-0.3-1.2-0.5-1.8-0.8c-0.9-0.4-1.8-0.8-2.7-1.3c-0.6-0.3-1.1-0.5-1.7-0.8c-1-0.5-1.9-1-2.9-1.5
		c-0.5-0.3-0.9-0.5-1.4-0.7c-1.4-0.8-2.9-1.6-4.3-2.4C421,571.2,398.7,490,431.9,424.9l-8.4-5c-0.4,0.5-0.8,1-1.2,1.5
		c-0.1,0.2-0.3,0.3-0.4,0.5c-0.3,0.3-0.6,0.7-0.9,1c-0.2,0.2-0.3,0.3-0.5,0.5c-0.3,0.3-0.6,0.6-0.9,0.8c-0.2,0.2-0.4,0.3-0.5,0.5
		c-0.3,0.3-0.6,0.5-0.9,0.8c-0.2,0.1-0.4,0.3-0.5,0.4c-0.4,0.3-0.7,0.6-1.1,0.8c-0.1,0.1-0.3,0.2-0.4,0.3c-0.5,0.4-1,0.7-1.5,1
		c-0.1,0.1-0.2,0.1-0.3,0.2c-0.4,0.3-0.9,0.5-1.3,0.8c-0.2,0.1-0.4,0.2-0.6,0.3c-0.4,0.2-0.7,0.4-1.1,0.6c-0.2,0.1-0.4,0.2-0.6,0.3
		c-0.4,0.2-0.7,0.3-1.1,0.5c-0.2,0.1-0.4,0.2-0.6,0.3c-0.4,0.2-0.7,0.3-1.1,0.4c-0.2,0.1-0.4,0.1-0.6,0.2c-0.4,0.2-0.9,0.3-1.4,0.4
		c-0.1,0-0.3,0.1-0.4,0.1c-0.6,0.2-1.2,0.3-1.8,0.5c-0.2,0-0.3,0.1-0.5,0.1c-0.4,0.1-0.9,0.2-1.3,0.3c-0.2,0-0.4,0.1-0.6,0.1
		c-0.4,0.1-0.8,0.1-1.2,0.2c-0.2,0-0.5,0.1-0.7,0.1c-0.4,0-0.8,0.1-1.1,0.1c-0.2,0-0.5,0-0.7,0c-0.4,0-0.8,0-1.2,0
		c-0.2,0-0.3,0-0.5,0c-0.1,0-0.1,0-0.2,0c-0.2,0-0.3,0-0.5,0c-0.3,0-0.7,0-1,0c-0.2,0-0.4,0-0.6,0c-0.3,0-0.7-0.1-1-0.1
		c-0.2,0-0.4,0-0.5-0.1c-0.4,0-0.8-0.1-1.2-0.2c-0.1,0-0.3,0-0.4-0.1c-0.5-0.1-1-0.2-1.5-0.3c-0.1,0-0.2-0.1-0.3-0.1
		c-0.4-0.1-0.8-0.2-1.2-0.3c-0.2,0-0.3-0.1-0.5-0.1c-0.3-0.1-0.7-0.2-1-0.3c-0.2-0.1-0.4-0.1-0.5-0.2c-0.3-0.1-0.7-0.2-1-0.3
		c-0.2-0.1-0.3-0.1-0.5-0.2c-0.4-0.2-0.8-0.3-1.2-0.5c-0.1,0-0.2-0.1-0.2-0.1c-0.5-0.2-1-0.4-1.4-0.7c-0.1-0.1-0.3-0.1-0.4-0.2
		c-0.3-0.2-0.7-0.3-1-0.5c-0.2-0.1-0.3-0.2-0.5-0.3c-0.3-0.2-0.6-0.4-0.9-0.5c-0.2-0.1-0.3-0.2-0.5-0.3c-0.3-0.2-0.6-0.4-0.9-0.6
		c-0.1-0.1-0.3-0.2-0.4-0.3c-0.4-0.3-0.9-0.6-1.3-1c-1.2-0.9-2.4-1.9-3.4-3c-1.1-1.1-2.1-2.2-3-3.4l-8.3,5
		c33,65.1,10.6,146.1-51.7,183.2c-1.4,0.8-2.8,1.6-4.3,2.4c-0.5,0.3-1,0.5-1.4,0.8c-1,0.5-1.9,1-2.9,1.5c-0.6,0.3-1.1,0.6-1.7,0.8
		c-0.9,0.4-1.8,0.9-2.7,1.3c-0.6,0.3-1.2,0.5-1.8,0.8c-0.9,0.4-1.8,0.8-2.6,1.1c-0.6,0.2-1.2,0.5-1.8,0.7c-0.9,0.4-1.8,0.7-2.7,1
		c-0.6,0.2-1.2,0.4-1.8,0.6c-1,0.3-2,0.7-2.9,1c-0.5,0.2-1,0.3-1.6,0.5c-1.4,0.4-2.8,0.8-4.2,1.2c-0.2,0-0.3,0.1-0.5,0.1
		c-1.4,0.4-2.9,0.8-4.3,1.1c-0.5,0.1-1.1,0.2-1.6,0.3c-1,0.2-2,0.4-3,0.6c-0.6,0.1-1.2,0.2-1.8,0.3c-0.9,0.2-1.8,0.3-2.8,0.5
		c-0.6,0.1-1.3,0.2-1.9,0.3c-0.9,0.1-1.8,0.3-2.7,0.4c-0.6,0.1-1.3,0.2-1.9,0.2c-0.9,0.1-1.9,0.2-2.8,0.3c-0.6,0.1-1.2,0.1-1.8,0.1
		c-1,0.1-2,0.1-3.1,0.2c-0.5,0-1,0.1-1.5,0.1c-1.5,0.1-3,0.1-4.4,0.1c0,0-0.1,0-0.1,0c0,0,0,0,0,0c-1.5,0-3,0-4.4-0.1
		c-0.2,0-0.4,0-0.6,0c-1.4-0.1-2.8-0.1-4.2-0.2c-0.2,0-0.5,0-0.7-0.1c-1.4-0.1-2.8-0.2-4.2-0.4c-0.2,0-0.4-0.1-0.7-0.1
		c-1.4-0.2-2.9-0.4-4.3-0.6c-0.1,0-0.2,0-0.3,0c-1.4-0.2-2.9-0.5-4.3-0.7c-0.1,0-0.2,0-0.3-0.1c-1.4-0.3-2.8-0.6-4.3-0.9
		c-0.2,0-0.4-0.1-0.6-0.1c-1.4-0.3-2.8-0.7-4.1-1c-0.2-0.1-0.4-0.1-0.7-0.2c-1.4-0.4-2.8-0.8-4.1-1.2c-0.2,0-0.3-0.1-0.5-0.1
		c-2.9-0.9-5.7-1.9-8.5-2.9c-0.2-0.1-0.3-0.1-0.5-0.2c-1.3-0.5-2.7-1.1-4-1.6c-0.2-0.1-0.4-0.2-0.6-0.3c-1.3-0.6-2.6-1.2-3.9-1.8
		c-0.2-0.1-0.4-0.2-0.6-0.3c-1.3-0.6-2.6-1.3-3.9-2c-0.1,0-0.2-0.1-0.3-0.1c-1.3-0.7-2.6-1.4-3.9-2.1c-0.1-0.1-0.2-0.1-0.3-0.2
		c-1.3-0.7-2.5-1.5-3.8-2.2c-0.2-0.1-0.4-0.2-0.6-0.4c-1.2-0.7-2.4-1.5-3.6-2.3c-0.2-0.1-0.4-0.3-0.6-0.4c-1.2-0.8-2.4-1.6-3.5-2.5
		c-0.2-0.1-0.3-0.2-0.5-0.3c-1.2-0.9-2.4-1.8-3.6-2.7c1,1,2,2,3,2.9c0.3,0.3,0.7,0.6,1,0.9c0.7,0.7,1.4,1.3,2.1,1.9
		c0.4,0.3,0.8,0.7,1.2,1c0.7,0.6,1.4,1.2,2.1,1.8c0.4,0.3,0.8,0.7,1.2,1c0.7,0.6,1.5,1.2,2.2,1.9c0.3,0.3,0.7,0.6,1,0.8
		c1.1,0.9,2.2,1.7,3.3,2.6c0,0,0.1,0.1,0.1,0.1c1.1,0.8,2.1,1.6,3.2,2.4c0.4,0.3,0.7,0.5,1.1,0.8c0.8,0.6,1.5,1.1,2.3,1.7
		c0.4,0.3,0.8,0.6,1.3,0.9c0.7,0.5,1.5,1,2.2,1.5c0.4,0.3,0.8,0.6,1.3,0.8c0.8,0.5,1.6,1.1,2.4,1.6c0.4,0.2,0.7,0.5,1.1,0.7
		c1.2,0.7,2.4,1.4,3.5,2.2c0.1,0,0.1,0.1,0.2,0.1c1.1,0.7,2.2,1.3,3.4,1.9c0.4,0.2,0.8,0.4,1.2,0.6c0.8,0.5,1.7,0.9,2.5,1.4
		c0.4,0.2,0.9,0.5,1.3,0.7c0.8,0.4,1.6,0.8,2.4,1.2c0.4,0.2,0.9,0.4,1.3,0.7c0.9,0.4,1.8,0.9,2.6,1.3c0.4,0.2,0.7,0.3,1.1,0.5
		c1.2,0.6,2.5,1.1,3.7,1.7c0.1,0,0.2,0.1,0.3,0.1c1.1,0.5,2.3,1,3.4,1.5c0.4,0.2,0.8,0.3,1.2,0.5c0.9,0.3,1.7,0.7,2.6,1
		c0.5,0.2,0.9,0.4,1.4,0.5c0.8,0.3,1.7,0.6,2.5,0.9c0.5,0.2,0.9,0.3,1.4,0.5c0.9,0.3,1.8,0.6,2.8,0.9c0.4,0.1,0.7,0.3,1.1,0.4
		c1.3,0.4,2.6,0.8,3.9,1.2c0.1,0,0.3,0.1,0.4,0.1c1.2,0.3,2.3,0.7,3.5,1c0.4,0.1,0.9,0.2,1.3,0.3c0.9,0.2,1.8,0.5,2.7,0.7
		c0.5,0.1,1,0.2,1.5,0.4c0.9,0.2,1.7,0.4,2.6,0.6c0.5,0.1,0.9,0.2,1.4,0.3c1,0.2,1.9,0.4,2.9,0.6c0.4,0.1,0.8,0.2,1.1,0.2
		c1.3,0.3,2.7,0.5,4,0.7c0.2,0,0.4,0.1,0.6,0.1c1.1,0.2,2.3,0.4,3.4,0.5c0.5,0.1,0.9,0.1,1.4,0.2c0.9,0.1,1.8,0.3,2.7,0.4
		c0.5,0.1,1,0.1,1.5,0.2c0.9,0.1,1.8,0.2,2.6,0.3c0.5,0.1,1,0.1,1.5,0.1c1,0.1,1.9,0.2,2.9,0.3c0.4,0,0.8,0.1,1.2,0.1
		c1.4,0.1,2.7,0.2,4.1,0.3c0.2,0,0.5,0,0.7,0c1.1,0.1,2.2,0.1,3.4,0.1c0.5,0,0.9,0,1.4,0c0.9,0,1.8,0,2.7,0c0.4,0,0.9,0,1.3,0
		c1.7,0,3.5,0,5.2-0.1c0.1,0,0.2,0,0.4,0c1.6-0.1,3.3-0.1,4.9-0.2c0.4,0,0.7,0,1.1-0.1c1.7-0.1,3.4-0.3,5.1-0.4c0.3,0,0.6-0.1,1-0.1
		c1.6-0.2,3.1-0.3,4.7-0.5c0.3,0,0.5-0.1,0.8-0.1c1.7-0.2,3.4-0.5,5.1-0.8c0.4-0.1,0.8-0.1,1.2-0.2c1.7-0.3,3.5-0.6,5.2-1
		c0.1,0,0.2,0,0.3-0.1c1.7-0.3,3.3-0.7,5-1.1c0.4-0.1,0.7-0.2,1.1-0.3c1.7-0.4,3.4-0.8,5-1.3c0.3-0.1,0.6-0.2,0.9-0.3
		c1.5-0.4,3.1-0.9,4.6-1.3c0.3-0.1,0.5-0.2,0.8-0.2c1.7-0.5,3.3-1.1,5-1.6c0.4-0.1,0.8-0.3,1.1-0.4c1.7-0.6,3.4-1.2,5.1-1.9
		c0.1,0,0.1,0,0.2-0.1c1.6-0.6,3.3-1.3,4.9-2c0.4-0.2,0.7-0.3,1.1-0.5c1.6-0.7,3.3-1.4,4.9-2.2c0.3-0.1,0.6-0.3,0.9-0.4
		c1.5-0.7,3-1.4,4.5-2.2c0.3-0.1,0.5-0.3,0.8-0.4c1.6-0.8,3.2-1.7,4.8-2.5c0.4-0.2,0.7-0.4,1.1-0.6c1.6-0.9,3.3-1.8,4.9-2.8
		c0,0,0,0,0,0c3.8-2.3,7.5-4.7,11.1-7.2c1.2-0.8,2.4-1.7,3.6-2.5c4.8,3.5,9.7,6.8,14.9,9.9c1.6,1,3.3,1.9,4.9,2.8
		c0.3,0.2,0.7,0.4,1,0.6c1.6,0.9,3.2,1.7,4.8,2.6c0.3,0.1,0.5,0.3,0.8,0.4c1.5,0.8,3,1.5,4.5,2.2c0.3,0.1,0.5,0.3,0.8,0.4
		c1.6,0.8,3.3,1.5,5,2.2c0.3,0.1,0.7,0.3,1,0.4c3.4,1.4,6.8,2.7,10.3,4c0.3,0.1,0.7,0.2,1,0.4c1.7,0.6,3.4,1.1,5.1,1.7
		c0.2,0.1,0.5,0.1,0.7,0.2c1.6,0.5,3.2,0.9,4.8,1.4c0.3,0.1,0.5,0.1,0.8,0.2c1.7,0.5,3.4,0.9,5.1,1.3c0.3,0.1,0.7,0.2,1,0.2
		c3.5,0.8,7,1.5,10.5,2.1c0.4,0.1,0.7,0.1,1.1,0.2c1.7,0.3,3.4,0.5,5.2,0.8c0.3,0,0.5,0.1,0.8,0.1c1.6,0.2,3.2,0.4,4.8,0.6
		c0.3,0,0.6,0.1,0.9,0.1c1.7,0.2,3.4,0.3,5.2,0.4c0.4,0,0.7,0,1.1,0.1c1.7,0.1,3.5,0.2,5.2,0.3c0,0,0.1,0,0.1,0
		c1.7,0.1,3.5,0.1,5.2,0.1c0.4,0,0.9,0,1.3,0c0.9,0,1.9,0,2.8,0c0.4,0,0.9,0,1.3,0c1.3,0,2.5-0.1,3.8-0.1c0.1,0,0.2,0,0.3,0
		c1.4-0.1,2.7-0.2,4.1-0.3c0.4,0,0.9-0.1,1.3-0.1c0.9-0.1,1.9-0.2,2.8-0.2c0.5,0,1-0.1,1.5-0.2c0.9-0.1,1.7-0.2,2.6-0.3
		c0.5-0.1,1-0.1,1.5-0.2c0.9-0.1,1.8-0.2,2.7-0.4c0.5-0.1,0.9-0.1,1.4-0.2c1.2-0.2,2.4-0.4,3.6-0.6c0.1,0,0.3,0,0.4-0.1
		c1.3-0.2,2.6-0.5,4-0.7c0.5-0.1,0.9-0.2,1.4-0.3c0.9-0.2,1.7-0.4,2.6-0.6c0.5-0.1,1-0.2,1.6-0.4c0.8-0.2,1.6-0.4,2.4-0.6
		c0.5-0.1,1.1-0.3,1.6-0.4c0.8-0.2,1.7-0.4,2.5-0.7c0.5-0.1,1-0.3,1.4-0.4c1.1-0.3,2.2-0.6,3.3-1c0.3-0.1,0.5-0.2,0.8-0.2
		c1.2-0.4,2.4-0.7,3.6-1.1c0.5-0.2,0.9-0.3,1.4-0.5c0.8-0.3,1.6-0.6,2.4-0.8c0.5-0.2,1-0.4,1.6-0.6c0.8-0.3,1.5-0.6,2.3-0.8
		c0.5-0.2,1-0.4,1.6-0.6c0.8-0.3,1.6-0.6,2.4-0.9c0.5-0.2,0.9-0.4,1.4-0.6c1.1-0.4,2.1-0.9,3.2-1.4c0.3-0.1,0.5-0.2,0.8-0.4
		c1.1-0.5,2.3-1,3.4-1.5c0.5-0.2,0.9-0.4,1.4-0.6c0.8-0.4,1.6-0.7,2.3-1.1c0.5-0.2,1-0.5,1.5-0.7c0.7-0.4,1.5-0.8,2.2-1.1
		c0.5-0.3,1-0.5,1.5-0.8c0.8-0.4,1.5-0.8,2.3-1.3c0.4-0.2,0.9-0.5,1.3-0.7c1.1-0.6,2.1-1.2,3.1-1.8c0.2-0.1,0.4-0.2,0.6-0.4
		c1.1-0.7,2.2-1.3,3.3-2c0.4-0.3,0.8-0.5,1.2-0.8c0.8-0.5,1.5-1,2.3-1.5c0.5-0.3,0.9-0.6,1.4-0.9c0.7-0.5,1.4-1,2.1-1.5
		c0.4-0.3,0.9-0.6,1.3-0.9c0.8-0.5,1.5-1.1,2.2-1.6c0.4-0.3,0.8-0.6,1.1-0.8c1.1-0.8,2.1-1.6,3.2-2.4c0.1-0.1,0.1-0.1,0.2-0.2
		c1.1-0.8,2.1-1.7,3.2-2.5c0.4-0.3,0.7-0.6,1.1-0.9c0.7-0.6,1.5-1.2,2.2-1.8c0.4-0.3,0.8-0.7,1.2-1c0.7-0.6,1.4-1.2,2-1.8
		c0.4-0.3,0.8-0.7,1.2-1c0.7-0.6,1.4-1.3,2.1-1.9c0.3-0.3,0.7-0.6,1-0.9c1-1,2-1.9,3-2.9c-1.2,0.9-2.4,1.8-3.6,2.7
		C627.3,601.7,627.2,601.8,627,601.9z M403.4,504.3c-0.1,0.2-0.2,0.5-0.3,0.7c-1.3,2.5-4,4.3-7,4.3c0,0,0,0,0,0h0
		c-0.1,0-0.1,0-0.2,0c-0.1,0-0.2,0-0.3,0c-0.1,0-0.3,0-0.4,0c-0.1,0-0.3,0-0.4-0.1c-0.1,0-0.3,0-0.4-0.1c-0.1,0-0.3-0.1-0.4-0.1
		c-0.1,0-0.2-0.1-0.4-0.1c-0.1,0-0.3-0.1-0.4-0.1c-0.1,0-0.2-0.1-0.4-0.1c-0.1-0.1-0.3-0.1-0.4-0.2c-0.1-0.1-0.2-0.1-0.3-0.2
		c-0.1-0.1-0.2-0.1-0.4-0.2c-0.1-0.1-0.2-0.1-0.3-0.2c-0.1-0.1-0.2-0.2-0.3-0.2c-0.1-0.1-0.2-0.1-0.3-0.2c-0.1-0.1-0.2-0.2-0.3-0.3
		c-0.1-0.1-0.2-0.2-0.3-0.2c-0.1-0.1-0.2-0.2-0.3-0.3c-0.1-0.1-0.2-0.2-0.2-0.3c-0.1-0.1-0.2-0.2-0.3-0.3c-0.1-0.1-0.2-0.2-0.2-0.3
		c-0.1-0.1-0.2-0.2-0.2-0.4c-0.1-0.1-0.1-0.2-0.2-0.3c-0.1-0.1-0.1-0.3-0.2-0.4c-0.1-0.1-0.1-0.2-0.2-0.3c-0.1-0.1-0.1-0.3-0.2-0.4
		c0-0.1-0.1-0.2-0.1-0.3c-0.1-0.2-0.1-0.3-0.1-0.5c0-0.1-0.1-0.2-0.1-0.3c0-0.2-0.1-0.4-0.1-0.5c0-0.1,0-0.2,0-0.3
		c0-0.3-0.1-0.6-0.1-0.8c0-2,0.6-3.8,1.7-5.3c0.6-0.8,1.5-1.5,2.4-2.1c0.2-0.1,0.5-0.3,0.7-0.4c0.5-0.2,1-0.4,1.5-0.5
		c0.5-0.1,1.1-0.2,1.6-0.2c0.1,0,0.1,0,0.2,0c0.1,0,0.2,0,0.3,0c0.1,0,0.3,0,0.4,0c0.1,0,0.3,0,0.4,0.1c0.1,0,0.3,0,0.4,0.1
		c0.1,0,0.3,0.1,0.4,0.1c0.1,0,0.2,0.1,0.4,0.1c0.1,0,0.3,0.1,0.4,0.1c0.1,0,0.2,0.1,0.3,0.1c0.1,0.1,0.3,0.1,0.4,0.2
		c0.1,0.1,0.2,0.1,0.3,0.2c0.1,0.1,0.2,0.1,0.4,0.2c0.1,0.1,0.2,0.1,0.3,0.2c0.1,0.1,0.2,0.2,0.4,0.2c0.1,0.1,0.2,0.1,0.3,0.2
		c0.1,0.1,0.2,0.2,0.3,0.3c0.1,0.1,0.2,0.2,0.3,0.2c0.1,0.1,0.2,0.2,0.3,0.3c0.1,0.1,0.2,0.2,0.2,0.3c0.1,0.1,0.2,0.2,0.3,0.3
		c0.1,0.1,0.1,0.2,0.2,0.3c0.1,0.1,0.2,0.2,0.2,0.4c0.1,0.1,0.1,0.2,0.2,0.3c0.1,0.1,0.1,0.3,0.2,0.4c0.1,0.1,0.1,0.2,0.2,0.3
		c0.1,0.1,0.1,0.3,0.2,0.4c0,0.1,0.1,0.2,0.1,0.3c0.1,0.2,0.1,0.3,0.1,0.5c0,0.1,0.1,0.2,0.1,0.3c0,0.2,0.1,0.4,0.1,0.6
		c0,0.1,0,0.2,0,0.3c0,0.3,0.1,0.6,0.1,0.8c0,0,0,0,0,0c0,0.1,0,0.1,0,0.2c0,0.3,0,0.5,0,0.8c0,0,0,0.1,0,0.1c0,0.4-0.1,0.9-0.2,1.3
		C403.6,503.7,403.5,504,403.4,504.3z M403.1,474.4c-1.5,0.9-3.1,1.4-4.9,1.7c-0.4,0.1-0.9,0.1-1.3,0.1c-0.1,0-0.3,0-0.4,0
		c-0.2,0-0.3,0-0.5,0c-0.2,0-0.4,0-0.6,0c-0.2,0-0.5-0.1-0.7-0.1c-0.2,0-0.4-0.1-0.6-0.1c-0.2,0-0.4-0.1-0.7-0.1
		c-0.2,0-0.4-0.1-0.6-0.1c-0.2-0.1-0.4-0.1-0.6-0.2c-0.2-0.1-0.4-0.1-0.6-0.2c-0.2-0.1-0.4-0.2-0.6-0.3c-0.2-0.1-0.4-0.2-0.5-0.3
		c-0.2-0.1-0.4-0.2-0.6-0.3c-0.2-0.1-0.3-0.2-0.5-0.3c-0.2-0.1-0.4-0.3-0.6-0.4c-0.2-0.1-0.3-0.2-0.5-0.3c-0.2-0.1-0.3-0.3-0.5-0.4
		c-0.1-0.1-0.3-0.2-0.4-0.4c-0.2-0.2-0.3-0.3-0.5-0.5c-0.1-0.1-0.3-0.3-0.4-0.4c-0.2-0.2-0.3-0.4-0.4-0.5c-0.1-0.1-0.2-0.3-0.3-0.4
		c-0.1-0.2-0.3-0.4-0.4-0.6c-0.1-0.2-0.2-0.3-0.3-0.5c-0.1-0.2-0.2-0.4-0.3-0.6c-0.1-0.2-0.2-0.3-0.3-0.5c-0.1-0.2-0.2-0.5-0.3-0.7
		c-0.1-0.2-0.1-0.3-0.2-0.5c-0.1-0.2-0.2-0.5-0.2-0.8c0-0.2-0.1-0.3-0.1-0.5c-0.1-0.3-0.1-0.6-0.2-0.9c0-0.1-0.1-0.3-0.1-0.4
		c-0.1-0.4-0.1-0.9-0.1-1.3c0-0.1,0-0.3,0-0.4c0-3.6,1.4-6.8,3.7-9.2c1.2-1.2,2.5-2.2,4.1-2.8c1.5-0.7,3.2-1.1,5-1.1l0,0
		c0,0,0,0,0,0l0,0c0,0,0,0,0,0c0.1,0,0.3,0,0.4,0c0.2,0,0.3,0,0.5,0c0.2,0,0.4,0,0.6,0c0.2,0,0.5,0.1,0.7,0.1c0.2,0,0.4,0.1,0.6,0.1
		c0.2,0,0.4,0.1,0.7,0.1c0.2,0,0.4,0.1,0.6,0.1c0.2,0.1,0.4,0.1,0.6,0.2c0.2,0.1,0.4,0.1,0.6,0.2c0.2,0.1,0.4,0.2,0.6,0.3
		c0.2,0.1,0.4,0.2,0.5,0.2c0.2,0.1,0.4,0.2,0.6,0.3c0.2,0.1,0.3,0.2,0.5,0.3c0.2,0.1,0.4,0.3,0.6,0.4c0.2,0.1,0.3,0.2,0.5,0.3
		c0.2,0.1,0.4,0.3,0.5,0.4c0.1,0.1,0.3,0.2,0.4,0.4c0.2,0.2,0.3,0.3,0.5,0.5c0.1,0.1,0.3,0.3,0.4,0.4c0.2,0.2,0.3,0.4,0.4,0.6
		c0.1,0.1,0.2,0.3,0.3,0.4c0.1,0.2,0.3,0.4,0.4,0.6c0.1,0.2,0.2,0.3,0.3,0.5c0.1,0.2,0.2,0.4,0.3,0.6c0.1,0.2,0.2,0.3,0.2,0.5
		c0.1,0.2,0.2,0.5,0.3,0.7c0.1,0.2,0.1,0.3,0.2,0.5c0.1,0.2,0.2,0.5,0.2,0.8c0,0.2,0.1,0.3,0.1,0.5c0.1,0.3,0.1,0.6,0.2,0.9
		c0,0.1,0.1,0.3,0.1,0.4c0.1,0.4,0.1,0.9,0.1,1.3C409.8,467.6,407.1,472.1,403.1,474.4z"/>
</g>
</svg>
