<svg xmlns="http://www.w3.org/2000/svg" viewBox="0 0 3069 1000"><g id="Color_Full_Width" data-name="Color Full Width"><path d="M977.08,416.79c3.63,0,6,1.82,6,5.46v2.59c0,8.06,3.38,12,12.21,12h74.84c13.77,0,17.15-3.38,17.15-14.3V410c0-10.91-3.38-14.29-17.15-14.29H986.69c-29.36,0-42.35-12.73-42.35-40.53V329.48c0-27.8,13-40.53,42.35-40.53h96.66c31.18,0,42.36,10.65,42.36,40.53v8.06c0,3.63-2.08,5.45-5.72,5.45h-29.36c-3.9,0-5.72-1.82-5.72-5.45v-2.6c0-8.06-3.64-11.95-12.73-11.95h-68.6c-13.77,0-17.15,3.37-17.15,14.29v10.65c0,11.17,3.38,14.55,17.15,14.55h83.15c29.62,0,42.61,12.47,42.61,40.54V430.3c0,27.8-13,40.54-42.61,40.54H984.35c-31.18,0-42.35-10.66-42.35-40.54v-8.05c0-3.64,2.08-5.46,5.71-5.46Z" style="fill:#4b5563"/><path d="M1303.44,433.68c0,25.72-11.44,37.16-38.72,37.16h-67.56c-27,0-38.71-11.44-38.71-37.16V371.32c0-25.73,11.69-37.16,38.71-37.16h67.56c27.28,0,38.72,11.43,38.72,37.16Zm-38.2-52.49c0-13.51-2.6-16.11-18.71-16.11h-30.92c-16.37,0-19,2.6-19,16.11V423.8c0,13.52,2.6,16.12,19,16.12h30.92c16.11,0,18.71-2.6,18.71-16.12Z" style="fill:#4b5563"/><path d="M1375.68,423.8c0,13.52,2.85,16.12,19,16.12h19.75c17.15,0,23.91-7,23.91-21.31V339.1c0-3.12,1.82-4.94,5.19-4.94h27.81c3.12,0,4.93,1.82,4.93,4.94V465.9c0,3.12-1.81,4.94-4.93,4.94h-23.39c-3.64,0-5.46-1.82-5.46-4.94V447.19c-4.67,15.59-16.89,23.65-37.67,23.65h-28.33c-27,0-39-11.44-39-37.16V339.1c0-3.12,2.08-4.94,5.2-4.94h27.8c3.38,0,5.2,1.82,5.2,4.94Z" style="fill:#4b5563"/><path d="M1558.35,365.08V428c0,9.36,2.59,12,11.43,12h20c3.63,0,5.19,1.55,5.19,4.93v21c0,3.12-1.56,4.94-5.19,4.94h-32.22c-26.25,0-37.42-10.66-37.42-35.86v-69.9h-13c-3.12,0-5.2-1.56-5.2-4.94v-21c0-3.12,2.08-4.94,5.2-4.94h13V304.28c0-3.12,1.82-4.94,5.2-4.94h27.54c3.64,0,5.46,1.82,5.46,4.94v29.88h31.44c3.63,0,5.19,1.82,5.19,4.94v21c0,3.38-1.56,4.94-5.19,4.94Z" style="fill:#4b5563"/><path d="M1725.69,381.19c0-13.51-2.6-16.11-19-16.11h-19.49c-17.15,0-23.91,7-23.91,21.31V465.9c0,3.12-1.56,4.94-5.19,4.94h-27.55c-3.64,0-5.45-1.82-5.45-4.94V283.49c0-3.12,1.81-4.94,5.45-4.94h27.55c3.63,0,5.19,1.82,5.19,4.94v68.86c5.72-12,17.41-18.19,35.6-18.19h26.24c27,0,38.72,11.43,38.72,37.16V465.9c0,3.12-1.82,4.94-5.2,4.94h-27.54c-3.38,0-5.45-1.82-5.45-4.94Z" style="fill:#4b5563"/><path d="M2056.2,410.55c3.64,0,5.72,2.08,5.72,5.46V430.3c0,29.88-11.17,40.54-42.35,40.54h-96.14c-29.63,0-43.66-13-43.66-41.58V330.52c0-28.58,14-41.57,43.66-41.57h96.14c31.18,0,42.35,10.65,42.35,40.53v14.29c0,3.38-2.08,5.46-5.72,5.46h-29.36c-3.9,0-5.71-2.08-5.71-5.46v-8.83c0-8.06-3.9-11.95-12.74-11.95H1945c-19.23,0-23.12,3.37-23.12,19.48v74.84c0,16.11,3.89,19.49,23.12,19.49h63.4c8.84,0,12.74-3.9,12.74-12V416c0-3.38,1.81-5.46,5.71-5.46Z" style="fill:#4b5563"/><path d="M2130.78,470.84c-27,0-38.72-11.44-38.72-37.16V371.32c0-25.73,11.7-37.16,38.72-37.16h67c25.46,0,36.64,10.65,36.64,34.82v40.53c0,3.38-1.82,4.94-5.46,4.94h-98.74v9.61c0,13.52,2.6,16.11,19,16.11h38.71c6.24,0,9.36-2.07,9.36-7.79,0-3.12,1.82-4.94,5.2-4.94H2229c3.64,0,5.46,1.82,5.46,4.94V436c0,24.42-10.92,34.82-36.38,34.82Zm-.52-81.59h66.52V374.17c0-6.75-3.64-9.35-10.65-9.35h-36.9c-16.37,0-19,2.6-19,16.11Z" style="fill:#4b5563"/><path d="M2370.62,381.19c0-13.51-2.6-16.11-19-16.11h-19.49c-17.15,0-23.91,7-23.91,21.31V465.9c0,3.12-1.56,4.94-5.19,4.94h-27.55c-3.63,0-5.45-1.82-5.45-4.94V339.1c0-3.12,1.82-4.94,5.45-4.94h23.13c3.64,0,5.46,1.82,5.46,4.94v18.7c4.41-15.59,16.89-23.64,37.67-23.64h28.33c27,0,38.71,11.43,38.71,37.16V465.9c0,3.12-1.82,4.94-5.2,4.94h-27.54c-3.38,0-5.45-1.82-5.45-4.94Z" style="fill:#4b5563"/><path d="M2489.1,365.08V428c0,9.36,2.6,12,11.44,12h20c3.63,0,5.19,1.55,5.19,4.93v21c0,3.12-1.56,4.94-5.19,4.94h-32.23c-26.24,0-37.41-10.66-37.41-35.86v-69.9h-13c-3.12,0-5.2-1.56-5.2-4.94v-21c0-3.12,2.08-4.94,5.2-4.94h13V304.28c0-3.12,1.82-4.94,5.19-4.94h27.55c3.64,0,5.45,1.82,5.45,4.94v29.88h31.45c3.63,0,5.19,1.82,5.19,4.94v21c0,3.38-1.56,4.94-5.19,4.94Z" style="fill:#4b5563"/><path d="M2627.08,365.08c-23.13,0-33,11.69-33,31.44V465.9c0,3.12-1.56,4.94-5.2,4.94h-27.54c-3.64,0-5.46-1.82-5.46-4.94V339.1c0-3.12,1.82-4.94,5.46-4.94h23.13c3.37,0,5.19,1.82,5.19,4.94v20.52c4.42-16.89,17.15-25.46,39.76-25.46h9.35c3.38,0,5.2,1.82,5.2,4.94v21c0,3.38-1.82,4.94-5.2,4.94Z" style="fill:#4b5563"/><path d="M2662.16,436.28V424.06c0-26.76,10.13-34.55,35.86-34.55h66.52v-8.58c0-13.51-2.86-16.11-19-16.11h-32.48c-6.24,0-9.1,2.08-9.1,7.8,0,3.37-1.82,5.19-5.45,5.19H2672c-3.38,0-5.45-1.82-5.45-5.19V369c0-24.43,10.91-34.82,36.37-34.82H2764c26.76,0,38.71,11.43,38.71,37.16v63.14c0,3.64,1.82,5.46,5.72,5.46H2810c3.38,0,5.2,1.55,5.2,4.93v21c0,3.12-1.82,4.94-5.2,4.94h-17.93c-17.15,0-24.43-8.06-24.43-22.09-5.19,14.55-17.4,22.09-37.41,22.09H2698C2672.29,470.84,2662.16,461.48,2662.16,436.28Zm102.38-17.41v-4.16H2711c-7,0-10.65,2.6-10.65,9.35v6.76c0,6.76,3.37,9.35,10.65,9.35h29.62C2757.78,440.17,2764.54,433.42,2764.54,418.87Z" style="fill:#4b5563"/><path d="M2895.76,439.92c3.37,0,5.19,1.55,5.19,4.93v21c0,3.12-1.82,4.94-5.19,4.94h-19.23c-25,0-35.08-9.62-35.08-33.52V283.49c0-3.12,2.08-4.94,5.2-4.94h27.8c3.38,0,5.2,1.82,5.2,4.94V431.08c0,6.24,2.33,8.84,9.87,8.84Z" style="fill:#4b5563"/><path d="M972,648.63c3.23,0,5.31,1.62,5.31,4.85v2.31c0,7.16,3,10.63,10.85,10.63h66.52c12.25,0,15.25-3,15.25-12.71V642.63c0-9.7-3-12.71-15.25-12.71H980.51c-26.1,0-37.65-11.31-37.65-36V571c0-24.72,11.55-36,37.65-36h85.92c27.72,0,37.65,9.47,37.65,36v7.16c0,3.23-1.85,4.85-5.08,4.85h-26.1c-3.46,0-5.08-1.62-5.08-4.85v-2.31c0-7.16-3.23-10.63-11.32-10.63h-61c-12.24,0-15.24,3-15.24,12.71v9.46c0,9.94,3,12.94,15.24,12.94h73.92c26.33,0,37.87,11.09,37.87,36v24.25c0,24.72-11.54,36-37.87,36h-91c-27.71,0-37.65-9.46-37.65-36v-7.16c0-3.23,1.85-4.85,5.09-4.85Z" style="fill:#4b5563"/><path d="M1177.3,565.25H1120c-3.47,0-5.08-1.85-5.08-4.85V539.84c0-3,1.61-4.85,5.08-4.85h151.75c3.46,0,5.08,1.85,5.08,4.85V560.4c0,3-1.62,4.85-5.08,4.85h-57V691.82c0,3-2.08,4.85-5.32,4.85h-27c-3.23,0-5.08-1.84-5.08-4.85Z" style="fill:#4b5563"/><path d="M1443.61,535c3.23,0,5.08,1.85,5.08,4.85V560.4c0,3-1.85,4.85-5.08,4.85H1329.05v35.11h96.31c3.23,0,5.31,1.62,5.31,4.85v19.86c0,3-2.08,4.85-5.31,4.85h-96.31v36.5h114.56c3.23,0,5.08,1.85,5.08,4.85v20.55c0,3-1.85,4.85-5.08,4.85h-146.9c-3.47,0-5.08-1.84-5.08-4.85v-152c0-3,1.61-4.85,5.08-4.85Z" style="fill:#4b5563"/><path d="M1524.68,535c3.92,0,6,1.39,7.16,4.62l44.34,119.65,44.12-119.65c1.15-3.23,3.23-4.62,7.16-4.62h50.12c3.47,0,5.31,1.85,5.31,4.85v152c0,3-1.84,4.85-5.31,4.85h-27c-3.24,0-5.08-1.84-5.08-4.85V565.94l-47.82,126.12c-.92,3.23-3.23,4.61-7.16,4.61H1560c-4.16,0-6-1.38-7.16-4.61l-48-126.58V691.82c0,3-1.84,4.85-5.08,4.85h-24.48c-3.47,0-5.08-1.84-5.08-4.85v-152c0-3,1.61-4.85,5.08-4.85Z" style="fill:#4b5563"/><path d="M1926.57,643.09c3.23,0,5.08,1.85,5.08,4.85v12.7c0,26.57-9.93,36-37.65,36h-85.46c-26.33,0-38.8-11.54-38.8-36.95V572c0-25.41,12.47-37,38.8-37H1894c27.72,0,37.65,9.47,37.65,36v12.7c0,3-1.85,4.85-5.08,4.85h-26.1c-3.47,0-5.08-1.85-5.08-4.85v-7.85c0-7.16-3.47-10.63-11.32-10.63h-56.36c-17.09,0-20.55,3-20.55,17.32v66.52c0,14.33,3.46,17.33,20.55,17.33h56.36c7.85,0,11.32-3.47,11.32-10.63v-7.85c0-3,1.61-4.85,5.08-4.85Z" style="fill:#4b5563"/><path d="M2078.08,663.65c0,22.86-10.16,33-34.41,33h-60.05c-24,0-34.42-10.16-34.42-33V608.21c0-22.86,10.4-33,34.42-33h60.05c24.25,0,34.41,10.17,34.41,33ZM2044.13,617c0-12-2.31-14.32-16.63-14.32H2000c-14.56,0-16.87,2.31-16.87,14.32v37.88c0,12,2.31,14.32,16.87,14.32h27.48c14.32,0,16.63-2.31,16.63-14.32Z" style="fill:#4b5563"/><path d="M2147.15,669.19c3,0,4.62,1.39,4.62,4.39v18.71c0,2.77-1.62,4.38-4.62,4.38h-17.1c-22.17,0-31.18-8.54-31.18-29.79V530.14c0-2.77,1.85-4.39,4.62-4.39h24.72c3,0,4.62,1.62,4.62,4.39v131.2c0,5.54,2.07,7.85,8.77,7.85Z" style="fill:#4b5563"/><path d="M2213.9,669.19c3,0,4.62,1.39,4.62,4.39v18.71c0,2.77-1.62,4.38-4.62,4.38h-17.09c-22.18,0-31.19-8.54-31.19-29.79V530.14c0-2.77,1.85-4.39,4.62-4.39H2195c3,0,4.62,1.62,4.62,4.39v131.2c0,5.54,2.07,7.85,8.77,7.85Z" style="fill:#4b5563"/><path d="M2265.63,696.67c-24,0-34.41-10.16-34.41-33V608.21c0-22.86,10.39-33,34.41-33h59.59c22.64,0,32.57,9.47,32.57,31v36c0,3-1.62,4.38-4.85,4.38h-87.77v8.55c0,12,2.31,14.32,16.86,14.32h34.42c5.54,0,8.31-1.85,8.31-6.93,0-2.77,1.62-4.39,4.62-4.39h23.56c3.23,0,4.85,1.62,4.85,4.39v3.23c0,21.72-9.7,30.95-32.33,30.95Zm-.46-72.52h59.13v-13.4c0-6-3.23-8.31-9.47-8.31H2282c-14.55,0-16.86,2.31-16.86,14.32Z" style="fill:#4b5563"/><path d="M2470.74,657c0-2.77,1.61-4.39,4.62-4.39h23.56c3.23,0,4.85,1.62,4.85,4.39v8.77c0,21.72-9.71,30.95-32.34,30.95h-59.82c-24,0-34.42-10.16-34.42-33V608.21c0-22.86,10.4-33,34.42-33h59.82c22.63,0,32.34,9.24,32.34,31v8.78c0,2.77-1.62,4.39-4.85,4.39h-23.56c-3,0-4.62-1.62-4.62-4.39v-4.39c0-5.54-3.24-7.85-9.24-7.85H2428c-14.55,0-16.86,2.31-16.86,14.32v37.88c0,12,2.31,14.32,16.86,14.32h33.49c6,0,9.24-2.31,9.24-7.85Z" style="fill:#4b5563"/><path d="M2562.2,602.67v55.89c0,8.32,2.31,10.63,10.16,10.63h17.79c3.23,0,4.62,1.39,4.62,4.39v18.71c0,2.77-1.39,4.38-4.62,4.38h-28.64c-23.33,0-33.26-9.46-33.26-31.87V602.67H2516.7c-2.77,0-4.62-1.39-4.62-4.39V579.57c0-2.77,1.85-4.39,4.62-4.39h11.55V548.62c0-2.77,1.62-4.39,4.62-4.39h24.48c3.24,0,4.85,1.62,4.85,4.39v26.56h28c3.23,0,4.62,1.62,4.62,4.39v18.71c0,3-1.39,4.39-4.62,4.39Z" style="fill:#4b5563"/><path d="M2612.32,533.15c0-3,1.62-4.39,4.85-4.39h24.49c3.23,0,4.62,1.38,4.62,4.39v18.94c0,3-1.39,4.38-4.62,4.38h-24.49c-3.23,0-4.85-1.38-4.85-4.38Zm0,46.42c0-2.77,1.62-4.39,4.85-4.39h24.49c3.23,0,4.62,1.62,4.62,4.39V692.29c0,2.77-1.39,4.38-4.62,4.38h-24.49c-3.23,0-4.85-1.61-4.85-4.38Z" style="fill:#4b5563"/><path d="M2658.52,579.57c-.93-2.77.23-4.39,2.54-4.39h27.71c3.93,0,5.55,1.16,6.47,4.16l33.49,90.54,33.72-90.54c.93-3,2.54-4.16,6.47-4.16H2795c2.31,0,3.7,1.62,2.54,4.39l-46,112.95c-1.16,3-2.77,4.15-6.47,4.15H2711c-3.7,0-5.31-1.15-6.47-4.15Z" style="fill:#4b5563"/><path d="M2841.21,696.67c-24,0-34.41-10.16-34.41-33V608.21c0-22.86,10.39-33,34.41-33h59.59c22.64,0,32.57,9.47,32.57,31v36c0,3-1.62,4.38-4.85,4.38h-87.77v8.55c0,12,2.31,14.32,16.86,14.32H2892c5.54,0,8.31-1.85,8.31-6.93,0-2.77,1.62-4.39,4.62-4.39h23.56c3.23,0,4.85,1.62,4.85,4.39v3.23c0,21.72-9.7,30.95-32.33,30.95Zm-.46-72.52h59.13v-13.4c0-6-3.23-8.31-9.47-8.31h-32.8c-14.55,0-16.86,2.31-16.86,14.32Z" style="fill:#4b5563"/><path id="Gear" d="M452.81,872.46A20.83,20.83,0,0,1,432,851.67c0-47.09-38.42-75.22-75.6-75.22a74.06,74.06,0,0,0-52.65,22.12,20.77,20.77,0,0,1-29.4,0L204,728.17a20.83,20.83,0,0,1,0-29.4,74.89,74.89,0,0,0-53.15-128.2,20.83,20.83,0,0,1-20.79-20.79V450.22a20.83,20.83,0,0,1,20.79-20.79A74.91,74.91,0,0,0,204,301.23a20.77,20.77,0,0,1,0-29.4l70.4-70.4a20.79,20.79,0,0,1,29.41,0,74,74,0,0,0,52.65,22.14c37.15,0,75.6-28.15,75.6-75.24a20.81,20.81,0,0,1,20.79-20.79h99.56a20.83,20.83,0,0,1,20.74,20.74,73.78,73.78,0,0,0,23.39,54.63,77.35,77.35,0,0,0,52.19,20.66,74,74,0,0,0,52.65-22.14,20.77,20.77,0,0,1,29.4,0l70.41,70.4a20.83,20.83,0,0,1,0,29.4A75.1,75.1,0,0,0,854.3,429.48a20.81,20.81,0,0,1,20.79,20.79v99.57a20.81,20.81,0,0,1-20.79,20.79,75.1,75.1,0,0,0-53.09,128.25,20.83,20.83,0,0,1,0,29.4l-70.44,70.29a20.78,20.78,0,0,1-14.71,6.09,20.78,20.78,0,0,1-14.7-6.09,74.06,74.06,0,0,0-52.65-22.12c-37.15,0-75.6,28.13-75.6,75.22a20.83,20.83,0,0,1-20.79,20.79Z" style="fill:#4b5563"/><g id="Bulb"><g id="Screw"><path id="Top" d="M451.38,670.91l101.2,29.94" style="fill:none;stroke:#fff;stroke-linecap:round;stroke-linejoin:round;stroke-width:27.07097281992492px"/><path id="Bottom" d="M466.37,721l66.1,19.56" style="fill:none;stroke:#fff;stroke-linecap:round;stroke-linejoin:round;stroke-width:27.07097281992492px"/></g><path id="Bulb-2" data-name="Bulb" d="M452.86,625.79V600.91c0-30.36-32.79-58.91-53.88-78.74-29.2-27.56-45.59-68.53-45.59-111.89a149.2,149.2,0,1,1,298.39,0c0,45-15.7,83.34-45.59,111.89-21.2,20.28-53.88,48.71-53.88,78.74v54.22l-.36.27-98.37-29.11Z" style="fill:#facc15;stroke:#fff;stroke-linecap:round;stroke-linejoin:round;stroke-width:27.07097281992492px"/><path id="Filament" d="M502.45,472.29V640.48m-50.31-183,101.19,29.94" style="fill:none;stroke:#fff;stroke-linecap:round;stroke-linejoin:round;stroke-width:27.07097281992492px"/></g></g></svg>