<svg xmlns="http://www.w3.org/2000/svg" viewBox="0 0 1000 1000"><defs><style>.cls-1{fill:#4b5563;}.cls-2{fill:none;}.cls-2,.cls-3{stroke:#fff;stroke-linecap:round;stroke-linejoin:round;stroke-width:32px;}.cls-3{fill:#facc15;}</style></defs><g id="Yellow_Gear" data-name="Yellow Gear"><path id="Gear" class="cls-1" d="M441.16,940.28a24.6,24.6,0,0,1-24.57-24.58c0-55.66-45.42-88.92-89.37-88.92A87.53,87.53,0,0,0,265,852.94a24.6,24.6,0,0,1-34.76,0l-83.16-83.22a24.63,24.63,0,0,1,0-34.76A88.53,88.53,0,0,0,84.24,583.42a24.62,24.62,0,0,1-24.57-24.57V441.15a24.62,24.62,0,0,1,24.57-24.57A88.55,88.55,0,0,0,147.07,265a24.58,24.58,0,0,1,0-34.76l83.22-83.22a24.6,24.6,0,0,1,34.76,0,87.48,87.48,0,0,0,62.24,26.17c43.91,0,89.36-33.27,89.36-88.93a24.62,24.62,0,0,1,24.58-24.58H558.92a24.62,24.62,0,0,1,24.51,24.52,87.29,87.29,0,0,0,27.65,64.58,91.38,91.38,0,0,0,61.7,24.41A87.53,87.53,0,0,0,735,147.06a24.59,24.59,0,0,1,34.75,0L853,230.28A24.63,24.63,0,0,1,853,265a88.77,88.77,0,0,0,62.77,151.6,24.62,24.62,0,0,1,24.57,24.58V558.91a24.62,24.62,0,0,1-24.57,24.58A88.78,88.78,0,0,0,853,735.09a24.61,24.61,0,0,1,0,34.75l-83.27,83.1a24.59,24.59,0,0,1-34.75,0,87.57,87.57,0,0,0-62.24-26.16c-43.92,0-89.36,33.26-89.36,88.92a24.62,24.62,0,0,1-24.58,24.58Z"/><g id="Bulb"><g id="Screw"><path id="Top" class="cls-2" d="M439.47,702l119.62,35.4"/><path id="Bottom" class="cls-2" d="M457.19,761.24l78.14,23.12"/></g><path id="Bulb-2" data-name="Bulb" class="cls-3" d="M441.22,648.69v-29.4c0-35.89-38.76-69.64-63.69-93.08-34.52-32.58-53.89-81-53.89-132.26a176.37,176.37,0,1,1,352.72,0c0,53.14-18.56,98.51-53.89,132.26-25.06,24-63.69,57.57-63.69,93.08v64.09l-.43.31-116.28-34.4Z"/><path id="Filament" class="cls-2" d="M499.84,467.25V666.06M440.36,449.8,560,485.19"/></g></g></svg>