<svg width="678" height="146" viewBox="0 0 678 146" fill="none" xmlns="http://www.w3.org/2000/svg">
<path fill-rule="evenodd" clip-rule="evenodd" d="M60.7166 63.9278C61.1332 62.5229 62.6124 61.7209 64.0206 62.1365L73.5615 64.9521C73.799 64.9888 74.0262 65.0568 74.2385 65.1519L83.9034 68.004C85.3117 68.4196 86.1156 69.8954 85.699 71.3003C85.2824 72.7052 83.8032 73.5072 82.395 73.0916L75.8103 71.1484V104.185C75.8103 105.65 74.6198 106.473 73.1513 106.473C71.6828 106.473 70.4923 105.285 70.4923 103.82V69.579L62.5122 67.2241C61.1039 66.8085 60.3 65.3327 60.7166 63.9278Z" fill="#FAFAFA"/>
<path fill-rule="evenodd" clip-rule="evenodd" d="M60.5128 144.805C61.2784 145.569 62.3164 145.999 63.3993 146H82.9497C84.0325 145.998 85.0705 145.568 85.8362 144.804C86.6019 144.041 87.0328 143.005 87.0346 141.925C87.0346 132.697 94.5862 127.182 101.885 127.182C103.811 127.186 105.717 127.572 107.493 128.316C109.268 129.061 110.878 130.15 112.229 131.519C112.995 132.283 114.034 132.711 115.116 132.711C116.199 132.711 117.238 132.283 118.004 131.519L131.842 117.742C132.607 116.977 133.036 115.941 133.036 114.861C133.036 113.781 132.607 112.745 131.842 111.98C129.777 109.922 128.369 107.299 127.798 104.443C127.228 101.586 127.519 98.6251 128.636 95.934C129.753 93.243 131.645 90.943 134.073 89.3252C136.5 87.7074 139.355 86.8444 142.274 86.8456C143.357 86.8434 144.394 86.4133 145.159 85.6495C145.925 84.8857 146.355 83.8504 146.357 82.7704V63.2512C146.355 62.1712 145.925 61.1359 145.159 60.3721C144.394 59.6082 143.357 59.1781 142.274 59.1759C139.354 59.1779 136.499 58.3154 134.071 56.6978C131.643 55.0801 129.751 52.7799 128.634 50.0885C127.517 47.3972 127.225 44.4357 127.796 41.579C128.368 38.7223 129.776 36.099 131.842 34.0412C132.604 33.2762 133.032 32.2415 133.032 31.163C133.032 30.0845 132.604 29.0499 131.842 28.2848L118.007 14.4873C117.241 13.724 116.202 13.2953 115.12 13.2953C114.037 13.2953 112.998 13.724 112.232 14.4873C110.882 15.8561 109.272 16.9438 107.497 17.6875C105.722 18.4312 103.817 18.8159 101.892 18.8195C98.0864 18.7999 94.4269 17.3555 91.638 14.7724C90.1704 13.4026 89.0042 11.7436 88.2131 9.9004C87.4221 8.05724 87.0236 6.07022 87.0429 4.06532C87.0385 2.98876 86.608 1.95751 85.8451 1.19611C85.0822 0.434705 84.0487 0.00480118 82.9696 0H63.4109C62.328 0.00175372 61.2901 0.431674 60.5244 1.19555C59.7587 1.95944 59.3277 2.99498 59.326 4.07527C59.326 13.3035 51.7727 18.8195 44.4754 18.8195C42.5491 18.816 40.6428 18.4306 38.8671 17.6857C37.0914 16.9409 35.4818 15.8514 34.1318 14.4806C33.3653 13.7172 32.3265 13.2885 31.2434 13.2885C30.1604 13.2885 29.1216 13.7172 28.3551 14.4806L14.5249 28.2782C13.7589 29.0424 13.3285 30.0789 13.3285 31.1597C13.3285 32.2405 13.7589 33.277 14.5249 34.0412C16.6091 36.0928 18.0324 38.7181 18.6129 41.5811C19.1934 44.4442 18.9046 47.4149 17.7835 50.1133C16.6623 52.8118 14.7598 55.1152 12.3193 56.729C9.87873 58.3428 7.01113 59.1936 4.08325 59.1726C3.00098 59.1748 1.96367 59.6047 1.19838 60.3682C0.4331 61.1316 0.00219573 62.1665 0 63.2462V82.7604C0.00219573 83.8401 0.4331 84.875 1.19838 85.6385C1.96367 86.4019 3.00098 86.8318 4.08325 86.834C7.01061 86.8124 9.87788 87.6625 12.3183 89.2756C14.7587 90.8887 16.6612 93.1914 17.7826 95.8892C18.9039 98.587 19.1931 101.557 18.6131 104.42C18.033 107.282 16.6102 109.907 14.5265 111.959C13.7626 112.724 13.3336 113.76 13.3336 114.84C13.3336 115.92 13.7626 116.956 14.5265 117.722L28.3468 131.519C29.1133 132.283 30.1521 132.712 31.2351 132.712C32.3182 132.712 33.357 132.283 34.1235 131.519C35.4735 130.15 37.0827 129.061 38.8577 128.316C40.6327 127.572 42.5382 127.186 44.4637 127.182C51.7677 127.182 59.316 132.697 59.316 141.925C59.3169 143.005 59.7473 144.041 60.5128 144.805ZM63.873 103.95C62.4648 103.535 60.9854 104.336 60.5687 105.741C60.152 107.146 60.9557 108.622 62.3639 109.038L82.2433 114.907C83.6515 115.323 85.1309 114.521 85.5476 113.116C85.9643 111.711 85.1606 110.235 83.7524 109.82L63.873 103.95ZM66.8177 113.772C65.4095 113.356 63.9302 114.158 63.5135 115.563C63.0969 116.968 63.9007 118.444 65.3088 118.86L78.2948 122.693C79.703 123.108 81.1823 122.307 81.599 120.902C82.0156 119.497 81.2118 118.021 79.8036 117.605L66.8177 113.772ZM73.1778 23.2151C68.9508 23.2151 64.7658 24.0513 60.8649 25.6755C56.9641 27.2996 53.4247 29.6794 50.4518 32.6771C47.4788 35.6748 45.1312 39.2309 43.5449 43.1396C41.9603 47.044 41.1667 51.2228 41.2098 55.4347C41.2133 64.5719 44.6737 73.3218 50.9996 79.278L51.0033 79.2815C51.2765 79.5378 51.5552 79.7975 51.8376 80.0607L51.8376 80.0607C53.7683 81.8602 55.8713 83.8202 57.6021 85.9578C59.6141 88.4427 60.7502 90.731 60.7502 92.7811V97.6555C60.7502 98.5175 61.17 99.3257 61.8759 99.8228L62.0171 99.9222C62.2545 100.089 62.5176 100.217 62.7962 100.299L82.1206 106.002C82.9096 106.235 83.7623 106.09 84.4297 105.61L84.5012 105.559C85.1945 105.06 85.6054 104.26 85.6054 103.407V92.7811C85.6054 90.7673 86.7307 88.5041 88.7452 86.0164C90.4151 83.9544 92.4255 82.053 94.3094 80.2712C94.6678 79.9322 95.0216 79.5976 95.3676 79.267C101.807 73.13 105.143 64.8976 105.146 55.4346C105.189 51.2227 104.395 47.0439 102.811 43.1396C101.224 39.2309 98.8768 35.6748 95.9038 32.6771C92.9309 29.6794 89.3915 27.2996 85.4906 25.6755C81.5898 24.0513 77.4048 23.2151 73.1778 23.2151Z" fill="#FAFAFA"/>
<path d="M170.414 54.6962C171.356 54.6962 171.971 55.1664 171.971 56.1069V56.776C171.971 58.8585 172.848 59.8764 175.139 59.8764H194.557C198.13 59.8764 199.007 59.0031 199.007 56.1818V52.9419C199.007 50.1232 198.13 49.2499 194.557 49.2499H172.907C165.29 49.2499 161.919 45.9609 161.919 38.7784V32.1385C161.919 24.956 165.292 21.667 172.907 21.667H197.987C206.077 21.667 208.978 24.4186 208.978 32.1385V34.2209C208.978 35.1587 208.438 35.629 207.494 35.629H199.876C198.864 35.629 198.392 35.1587 198.392 34.2209V33.5491C198.392 31.4667 197.447 30.4617 195.089 30.4617H177.29C173.717 30.4617 172.84 31.3324 172.84 34.1537V36.9053C172.84 39.7912 173.717 40.6645 177.29 40.6645H198.864C206.549 40.6645 209.92 43.8863 209.92 51.1385V58.1867C209.92 65.3692 206.547 68.6608 198.864 68.6608H172.3C164.21 68.6608 161.312 65.9066 161.312 58.1867V56.1069C161.312 55.1664 161.852 54.6962 162.794 54.6962H170.414Z" fill="#FAFAFA"/>
<path d="M255.092 59.06C255.092 65.7051 252.124 68.6608 245.046 68.6608H227.517C220.511 68.6608 217.473 65.7051 217.473 59.06V42.9485C217.473 36.3008 220.506 33.3477 227.517 33.3477H245.046C252.124 33.3477 255.092 36.3008 255.092 42.9485V59.06ZM245.181 45.4985C245.181 42.008 244.506 41.3363 240.326 41.3363H232.304C228.056 41.3363 227.374 42.008 227.374 45.4985V56.5074C227.374 60.0005 228.049 60.6722 232.304 60.6722H240.326C244.506 60.6722 245.181 60.0005 245.181 56.5074V45.4985Z" fill="#FAFAFA"/>
<path d="M273.836 56.5074C273.836 60.0005 274.576 60.6722 278.766 60.6722H283.89C288.34 60.6722 290.094 58.8637 290.094 55.1665V34.624C290.094 33.8179 290.566 33.3477 291.441 33.3477H298.656C299.466 33.3477 299.936 33.8179 299.936 34.624V67.3845C299.936 68.1906 299.466 68.6608 298.656 68.6608H292.588C291.643 68.6608 291.171 68.1906 291.171 67.3845V62.5505C289.959 66.5784 286.789 68.6608 281.397 68.6608H274.046C267.041 68.6608 263.927 65.7051 263.927 59.06V34.624C263.927 33.8179 264.467 33.3477 265.276 33.3477H272.49C273.367 33.3477 273.839 33.8179 273.839 34.624L273.836 56.5074Z" fill="#FAFAFA"/>
<path d="M321.232 41.3362V57.5924C321.232 60.0107 321.904 60.6928 324.198 60.6928H329.387C330.329 60.6928 330.734 61.0932 330.734 61.9665V67.3921C330.734 68.1982 330.329 68.6685 329.387 68.6685H321.027C314.216 68.6685 311.318 65.9143 311.318 59.4035V41.3439H307.945C307.136 41.3439 306.596 40.9409 306.596 40.0676V34.642C306.596 33.8359 307.136 33.3656 307.945 33.3656H311.318V25.6276C311.318 24.8215 311.79 24.3513 312.667 24.3513H319.813C320.757 24.3513 321.23 24.8215 321.23 25.6276V33.3475H329.387C330.329 33.3475 330.734 33.8178 330.734 34.6239V40.0495C330.734 40.9228 330.329 41.3258 329.387 41.3258L321.232 41.3362Z" fill="#FAFAFA"/>
<path d="M364.651 45.4984C364.651 42.0079 363.976 41.3362 359.721 41.3362H354.664C350.214 41.3362 348.46 43.1447 348.46 46.8419V67.3844C348.46 68.1905 348.056 68.6607 347.114 68.6607H339.966C339.021 68.6607 338.552 68.1905 338.552 67.3844V20.2563C338.552 19.4502 339.021 18.98 339.966 18.98H347.114C348.056 18.98 348.46 19.4502 348.46 20.2563V38.0472C349.945 34.9469 352.978 33.3476 357.697 33.3476H364.506C371.511 33.3476 374.552 36.3007 374.552 42.9484V67.3844C374.552 68.1905 374.08 68.6607 373.203 68.6607H366.057C365.18 68.6607 364.643 68.1905 364.643 67.3844L364.651 45.4984Z" fill="#FAFAFA"/>
<path d="M450.406 53.084C451.351 53.084 451.89 53.6214 451.89 54.4947V58.1867C451.89 65.9066 448.992 68.6608 440.902 68.6608H415.957C408.269 68.6608 404.629 65.3021 404.629 57.918V32.4072C404.629 25.0231 408.262 21.667 415.957 21.667H440.902C448.992 21.667 451.89 24.4186 451.89 32.1385V35.8305C451.89 36.7038 451.351 37.2412 450.406 37.2412H442.788C441.777 37.2412 441.307 36.7038 441.307 35.8305V33.5491C441.307 31.4667 440.295 30.4617 438.001 30.4617H421.554C416.564 30.4617 415.555 31.3324 415.555 35.4946V54.8306C415.555 58.9928 416.564 59.8661 421.554 59.8661H438.004C440.298 59.8661 441.309 58.8585 441.309 56.7657V54.4921C441.309 53.6188 441.779 53.0814 442.791 53.0814L450.406 53.084Z" fill="#FAFAFA"/>
<path d="M469.757 68.6608C462.752 68.6608 459.711 65.7051 459.711 59.06V42.9485C459.711 36.3008 462.746 33.3477 469.757 33.3477H487.141C493.747 33.3477 496.648 36.0992 496.648 42.3439V52.8154C496.648 53.6886 496.176 54.0917 495.231 54.0917H469.612V56.5746C469.612 60.0676 470.286 60.7368 474.542 60.7368H484.585C486.204 60.7368 487.014 60.202 487.014 58.7241C487.014 57.9181 487.486 57.4478 488.363 57.4478H495.242C496.186 57.4478 496.658 57.9181 496.658 58.7241V59.6594C496.658 65.9687 493.825 68.6557 487.219 68.6557L469.757 68.6608ZM469.622 47.5809H486.882V43.6848C486.882 41.9408 485.937 41.2691 484.118 41.2691H474.544C470.297 41.2691 469.614 41.9408 469.614 45.4313L469.622 47.5809Z" fill="#FAFAFA"/>
<path d="M531.987 45.4985C531.987 42.008 531.312 41.3363 527.057 41.3363H522C517.55 41.3363 515.796 43.1448 515.796 46.842V67.3845C515.796 68.1906 515.392 68.6608 514.45 68.6608H507.302C506.36 68.6608 505.887 68.1906 505.887 67.3845V34.624C505.887 33.8179 506.36 33.3477 507.302 33.3477H513.303C514.247 33.3477 514.72 33.8179 514.72 34.624V39.4554C515.864 35.4275 519.102 33.3477 524.494 33.3477H531.844C538.85 33.3477 541.888 36.3008 541.888 42.9485V67.3845C541.888 68.1906 541.416 68.6608 540.539 68.6608H533.393C532.516 68.6608 531.979 68.1906 531.979 67.3845L531.987 45.4985Z" fill="#FAFAFA"/>
<path d="M562.728 41.3362V57.5924C562.728 60.0107 563.403 60.6928 565.696 60.6928H570.886C571.827 60.6928 572.232 61.0932 572.232 61.9665V67.3921C572.232 68.1982 571.827 68.6685 570.886 68.6685H562.523C555.715 68.6685 552.816 65.9143 552.816 59.4035V41.3439H549.443C548.634 41.3439 548.094 40.9409 548.094 40.0676V34.642C548.094 33.8359 548.634 33.3656 549.443 33.3656H552.816V25.6276C552.816 24.8215 553.289 24.3513 554.163 24.3513H561.311C562.256 24.3513 562.725 24.8215 562.725 25.6276V33.3475H570.886C571.827 33.3475 572.232 33.8178 572.232 34.6239V40.0495C572.232 40.9228 571.827 41.3258 570.886 41.3258L562.728 41.3362Z" fill="#FAFAFA"/>
<path d="M598.529 41.3363C592.527 41.3363 589.966 44.3565 589.966 49.4592V67.3845C589.966 68.1906 589.562 68.6608 588.617 68.6608H581.472C580.527 68.6608 580.055 68.1906 580.055 67.3845V34.624C580.055 33.8179 580.527 33.3477 581.472 33.3477H587.473C588.347 33.3477 588.82 33.8179 588.82 34.624V39.9256C589.966 35.5618 593.269 33.3477 599.136 33.3477H601.562C602.439 33.3477 602.911 33.8179 602.911 34.624V40.0496C602.911 40.9229 602.439 41.3259 601.562 41.3259L598.529 41.3363Z" fill="#FAFAFA"/>
<path d="M607.631 59.7317V56.5745C607.631 49.6607 610.259 47.6481 616.935 47.6481H634.195V45.4313C634.195 41.9408 633.452 41.2691 629.265 41.2691H620.837C619.218 41.2691 618.476 41.8064 618.476 43.2843C618.476 44.155 618.004 44.6252 617.062 44.6252H610.184C609.307 44.6252 608.77 44.155 608.77 43.2843V42.349C608.77 36.0372 611.6 33.3528 618.206 33.3528H634.054C640.998 33.3528 644.098 36.3059 644.098 42.9536V59.2667C644.098 60.2071 644.57 60.6773 645.582 60.6773H645.99C646.867 60.6773 647.339 61.0778 647.339 61.9511V67.3767C647.339 68.1828 646.867 68.653 645.99 68.653H641.338C636.888 68.653 634.999 66.5706 634.999 62.9458C633.652 66.705 630.484 68.653 625.292 68.653H616.93C610.259 68.6608 607.631 66.2425 607.631 59.7317ZM634.195 55.2336V54.1588H620.303C618.487 54.1588 617.54 54.8306 617.54 56.5745V58.3211C617.54 60.0676 618.414 60.7368 620.303 60.7368H627.988C632.441 60.7368 634.195 58.9928 634.195 55.2336Z" fill="#FAFAFA"/>
<path d="M668.241 60.6721C669.116 60.6721 669.588 61.0726 669.588 61.9459V67.3715C669.588 68.1776 669.116 68.6478 668.241 68.6478H663.252C656.765 68.6478 654.15 66.1624 654.15 59.9875V20.2563C654.15 19.4502 654.69 18.98 655.499 18.98H662.712C663.589 18.98 664.061 19.4502 664.061 20.2563V58.3882C664.061 60.0004 664.666 60.6721 666.622 60.6721H668.241Z" fill="#FAFAFA"/>
<path d="M169.096 114.595C169.934 114.595 170.474 115.014 170.474 115.848V116.445C170.474 118.295 171.252 119.191 173.289 119.191H190.548C193.727 119.191 194.505 118.416 194.505 115.908V113.045C194.505 110.539 193.727 109.761 190.548 109.761H171.304C164.532 109.761 161.535 106.839 161.535 100.46V94.5384C161.535 88.1516 164.532 85.2373 171.304 85.2373H193.597C200.789 85.2373 203.366 87.684 203.366 94.5384V96.3883C203.366 97.2228 202.886 97.6414 202.048 97.6414H195.276C194.378 97.6414 193.958 97.2228 193.958 96.3883V95.7915C193.958 93.9416 193.12 93.045 191.021 93.045H175.193C172.018 93.045 171.239 93.8201 171.239 96.3289V98.773C171.239 101.341 172.018 102.116 175.193 102.116H194.373C201.205 102.116 204.199 104.981 204.199 111.417V117.683C204.199 124.069 201.205 126.984 194.373 126.984H170.762C163.572 126.984 160.993 124.54 160.993 117.683V115.833C160.993 114.998 161.473 114.58 162.314 114.58L169.096 114.595Z" fill="#FAFAFA"/>
<path d="M222.364 93.053H207.497C206.596 93.053 206.178 92.575 206.178 91.7999V86.4879C206.178 85.7128 206.596 85.2349 207.497 85.2349H246.87C247.768 85.2349 248.188 85.7128 248.188 86.4879V91.7999C248.188 92.575 247.768 93.053 246.87 93.053H232.081V125.754C232.081 126.529 231.541 127.007 230.7 127.007H223.695C222.857 127.007 222.377 126.532 222.377 125.754L222.364 93.053Z" fill="#FAFAFA"/>
<path d="M291.462 85.2373C292.3 85.2373 292.78 85.7152 292.78 86.4903V91.7997C292.78 92.5748 292.3 93.0528 291.462 93.0528H261.737V102.124H286.726C287.564 102.124 288.104 102.542 288.104 103.377V108.508C288.104 109.283 287.564 109.761 286.726 109.761H261.737V119.191H291.462C292.3 119.191 292.78 119.669 292.78 120.444V125.754C292.78 126.529 292.3 127.007 291.462 127.007H253.346C252.446 127.007 252.028 126.532 252.028 125.754V86.4826C252.028 85.7075 252.446 85.2295 253.346 85.2295L291.462 85.2373Z" fill="#FAFAFA"/>
<path d="M312.496 85.2373C313.513 85.2373 314.053 85.5964 314.354 86.4309L325.859 117.344L337.306 86.4309C337.604 85.5964 338.144 85.2373 339.164 85.2373H352.168C353.068 85.2373 353.546 85.7152 353.546 86.4903V125.762C353.546 126.537 353.068 127.015 352.168 127.015H345.163C344.322 127.015 343.845 126.539 343.845 125.762V93.231L331.437 125.816C331.198 126.65 330.599 127.007 329.579 127.007H321.66C320.581 127.007 320.104 126.65 319.803 125.816L307.348 93.1122V125.754C307.348 126.529 306.871 127.007 306.03 127.007H299.679C298.778 127.007 298.361 126.532 298.361 125.754V86.4826C298.361 85.7075 298.778 85.2295 299.679 85.2295L312.496 85.2373Z" fill="#FAFAFA"/>
<path d="M416.772 113.164C417.61 113.164 418.09 113.642 418.09 114.417V117.698C418.09 124.563 415.514 126.999 408.321 126.999H386.148C379.316 126.999 376.08 124.018 376.08 117.453V94.7968C376.08 88.2317 379.316 85.2373 386.148 85.2373H408.321C415.514 85.2373 418.09 87.684 418.09 94.5384V97.8196C418.09 98.5947 417.61 99.0727 416.772 99.0727H410C409.1 99.0727 408.682 98.5947 408.682 97.8196V95.7915C408.682 93.9416 407.782 93.0451 405.745 93.0451H391.121C386.687 93.0451 385.789 93.8201 385.789 97.5199V114.706C385.789 118.409 386.687 119.184 391.121 119.184H405.745C407.782 119.184 408.682 118.287 408.682 116.437V114.409C408.682 113.634 409.1 113.156 410 113.156L416.772 113.164Z" fill="#FAFAFA"/>
<path d="M456.083 118.476C456.083 124.382 453.447 127.002 447.155 127.002H431.574C425.347 127.002 422.644 124.377 422.644 118.476V104.152C422.644 98.246 425.342 95.6262 431.574 95.6262H447.155C453.447 95.6262 456.083 98.2538 456.083 104.152V118.476ZM447.274 106.423C447.274 103.323 446.675 102.723 442.96 102.723H435.824C432.047 102.723 431.447 103.32 431.447 106.423V116.21C431.447 119.31 432.047 119.91 435.824 119.91H442.954C446.67 119.91 447.269 119.313 447.269 116.21L447.274 106.423Z" fill="#FAFAFA"/>
<path d="M474.004 119.907C474.783 119.907 475.203 120.266 475.203 121.041V125.875C475.203 126.591 474.783 127.007 474.004 127.007H469.568C463.815 127.007 461.478 124.801 461.478 119.31V83.9816C461.478 83.266 461.958 82.8474 462.676 82.8474H469.09C469.869 82.8474 470.289 83.266 470.289 83.9816V117.879C470.289 119.31 470.826 119.907 472.564 119.907H474.004Z" fill="#FAFAFA"/>
<path d="M491.324 119.907C492.102 119.907 492.522 120.266 492.522 121.041V125.875C492.522 126.591 492.102 127.007 491.324 127.007H486.89C481.135 127.007 478.797 124.801 478.797 119.31V83.9816C478.797 83.266 479.277 82.8474 479.996 82.8474H486.42C487.198 82.8474 487.619 83.266 487.619 83.9816V117.879C487.619 119.31 488.156 119.907 489.894 119.907H491.324Z" fill="#FAFAFA"/>
<path d="M504.745 127.007C498.518 127.007 495.817 124.382 495.817 118.481V104.152C495.817 98.246 498.513 95.6262 504.745 95.6262H520.207C526.081 95.6262 528.658 98.0729 528.658 103.635V112.937C528.658 113.712 528.237 114.068 527.399 114.068H504.626V116.277C504.626 119.378 505.226 119.977 509.001 119.977H517.931C519.369 119.977 520.088 119.499 520.088 118.187C520.088 117.471 520.508 117.052 521.286 117.052H527.399C528.237 117.052 528.658 117.471 528.658 118.187V119.021C528.658 124.633 526.141 127.017 520.269 127.017L504.745 127.007ZM504.626 108.271H519.968V104.808C519.968 103.258 519.13 102.661 517.511 102.661H508.993C505.218 102.661 504.618 103.258 504.618 106.361L504.626 108.271Z" fill="#FAFAFA"/>
<path d="M557.964 116.758C557.964 116.042 558.382 115.624 559.163 115.624H565.276C566.114 115.624 566.534 116.042 566.534 116.758V119.024C566.534 124.635 564.015 127.02 558.143 127.02H542.622C536.395 127.02 533.691 124.395 533.691 118.494V104.152C533.691 98.246 536.39 95.6262 542.622 95.6262H558.143C564.015 95.6262 566.534 98.0135 566.534 103.635V105.904C566.534 106.62 566.114 107.038 565.276 107.038H559.163C558.385 107.038 557.964 106.62 557.964 105.904V104.77C557.964 103.338 557.124 102.742 555.567 102.742H546.875C543.1 102.742 542.5 103.338 542.5 106.441V116.228C542.5 119.329 543.1 119.928 546.875 119.928H555.564C557.121 119.928 557.962 119.331 557.962 117.9L557.964 116.758Z" fill="#FAFAFA"/>
<path d="M581.695 102.721V117.161C581.695 119.31 582.294 119.907 584.331 119.907H588.947C589.785 119.907 590.145 120.266 590.145 121.041V125.875C590.145 126.591 589.785 127.007 588.947 127.007H581.516C575.462 127.007 572.886 124.563 572.886 118.773V102.721H569.889C569.17 102.721 568.69 102.362 568.69 101.587V96.7527C568.69 96.037 569.17 95.6184 569.889 95.6184H572.886V88.7563C572.886 88.0406 573.306 87.6221 574.085 87.6221H580.436C581.277 87.6221 581.695 88.0406 581.695 88.7563V95.6184H588.96C589.798 95.6184 590.158 96.037 590.158 96.7527V101.587C590.158 102.362 589.798 102.721 588.96 102.721H581.695Z" fill="#FAFAFA"/>
<path d="M594.699 84.7595C594.699 83.9844 595.119 83.6252 595.957 83.6252H602.311C603.149 83.6252 603.51 83.9818 603.51 84.7595V89.6529C603.51 90.428 603.149 90.7845 602.311 90.7845H595.957C595.119 90.7845 594.699 90.428 594.699 89.6529V84.7595ZM594.699 96.7527C594.699 96.037 595.119 95.6185 595.957 95.6185H602.311C603.149 95.6185 603.51 96.037 603.51 96.7527V125.875C603.51 126.591 603.149 127.007 602.311 127.007H595.957C595.119 127.007 594.699 126.591 594.699 125.875V96.7527Z" fill="#FAFAFA"/>
<path d="M606.686 96.7526C606.445 96.037 606.746 95.6184 607.345 95.6184H614.535C615.555 95.6184 615.975 95.9181 616.214 96.6932L624.903 120.085L633.652 96.6932C633.894 95.9181 634.311 95.6184 635.331 95.6184H642.098C642.697 95.6184 643.058 96.037 642.757 96.7526L630.822 125.935C630.521 126.71 630.103 127.007 629.143 127.007H620.303C619.343 127.007 618.925 126.71 618.624 125.935L606.686 96.7526Z" fill="#FAFAFA"/>
<path d="M654.088 127.007C647.861 127.007 645.16 124.382 645.16 118.481V104.152C645.16 98.246 647.855 95.6262 654.088 95.6262H669.549C675.423 95.6262 678 98.0729 678 103.635V112.937C678 113.712 677.58 114.068 676.742 114.068H653.968V116.277C653.968 119.378 654.568 119.977 658.343 119.977H667.266C668.703 119.977 669.422 119.499 669.422 118.187C669.422 117.471 669.842 117.052 670.621 117.052H676.734C677.572 117.052 677.992 117.471 677.992 118.187V119.021C677.992 124.633 675.475 127.017 669.604 127.017L654.088 127.007ZM653.968 108.271H669.31V104.808C669.31 103.258 668.472 102.661 666.853 102.661H658.343C654.568 102.661 653.968 103.258 653.968 106.361V108.271Z" fill="#FAFAFA"/>
</svg>
